<svg width="17" height="17" viewBox="0 0 17 17" fill="none" xmlns="http://www.w3.org/2000/svg">
<g clip-path="url(#clip0_513_1116)">
<path fill-rule="evenodd" clip-rule="evenodd" d="M5.17742 5.3614L1.84351 8.6618C2.51035 9.32196 3.27212 9.87831 4.10266 10.3136C4.33223 10.9164 4.69207 11.4817 5.18217 11.9669C7.02608 13.7923 10.0156 13.7923 11.8595 11.9669C12.3496 11.4817 12.7095 10.9164 12.939 10.3135C13.7696 9.87831 14.5313 9.32196 15.1982 8.6618L11.8669 5.36409C11.8645 5.36162 11.862 5.35915 11.8595 5.35669C10.0156 3.53133 7.02608 3.53133 5.18217 5.35669C5.18059 5.35826 5.17901 5.35983 5.17742 5.3614ZM11.5405 10.909C10.5689 11.2336 9.54905 11.3998 8.52084 11.3998C7.49263 11.3998 6.47277 11.2336 5.50121 10.909C5.60648 11.0473 5.7227 11.18 5.8499 11.3059C7.32503 12.7662 9.71665 12.7662 11.1918 11.3059C11.319 11.18 11.4352 11.0473 11.5405 10.909ZM5.91838 5.95161C6.16888 6.11544 6.43524 6.25563 6.71395 6.36993C7.2868 6.60482 7.90078 6.72572 8.52084 6.72572C9.14089 6.72572 9.75487 6.60482 10.3277 6.36993C10.6064 6.25563 10.8728 6.11544 11.1233 5.9516C9.6666 4.57946 7.37507 4.57946 5.91838 5.95161Z" fill="#3B4158"/>
</g>
<defs>
<clipPath id="clip0_513_1116">
<rect width="13.3547" height="9.34826" fill="white" transform="translate(1.84351 3.98767)"/>
</clipPath>
</defs>
</svg>
