<svg width="20" height="17" viewBox="0 0 20 17" fill="none" xmlns="http://www.w3.org/2000/svg">
<g clip-path="url(#clip0_513_1147)">
<path d="M19.0251 7.21605C19.027 7.20213 19.027 7.18805 19.0251 7.17413C19.0269 7.16279 19.0269 7.15122 19.0251 7.13985L18.889 6.16074C18.8694 6.0436 18.8169 5.93411 18.7375 5.84453L18.7141 5.81786L18.6714 5.77595L16.3165 3.78725L16.3825 3.85202C16.3285 3.78862 16.2606 3.73791 16.184 3.70363C16.1073 3.66934 16.0238 3.65235 15.9395 3.65391H15.2245C15.1082 3.65165 14.9946 3.68789 14.9019 3.75677C14.8046 3.68831 14.6875 3.65225 14.5677 3.65391H13.8527C13.7589 3.65242 13.6664 3.67523 13.5845 3.72006C13.5026 3.76488 13.4343 3.83012 13.3864 3.90916C13.3125 4.02206 13.2848 4.15808 13.3086 4.29014L13.398 4.90732C13.3388 4.87441 13.2718 4.85734 13.2037 4.8578H9.74122C9.61699 4.85856 9.49562 4.89426 9.39146 4.96066C9.29075 5.02246 9.2099 5.11096 9.15831 5.21591L8.89016 4.99114C8.78463 4.89541 8.64533 4.84352 8.50156 4.84637H3.06884C2.94417 4.84859 2.82227 4.88274 2.71522 4.94542C2.56876 5.02946 2.46143 5.16611 2.41598 5.3264L0.690567 10.9839C0.658328 11.0771 0.655156 11.1777 0.681459 11.2727C0.707761 11.3677 0.762345 11.4528 0.838239 11.5173C0.858014 11.5337 0.878779 11.549 0.900417 11.563C0.900417 11.563 0.865437 11.5401 0.846007 11.5211L3.20097 13.5136C3.30059 13.6035 3.43084 13.6538 3.56624 13.6546H9.04173C9.16678 13.6514 9.28876 13.6159 9.39537 13.5517C9.45566 13.5194 9.5096 13.4768 9.55469 13.426L9.57412 13.3993L9.60521 13.3612L9.62852 13.3193L9.88501 13.5365C9.9832 13.6228 10.1106 13.6703 10.2425 13.6698H15.7296C15.8546 13.6657 15.9763 13.6303 16.0833 13.5669C16.1422 13.5327 16.1958 13.4903 16.2426 13.4412L16.262 13.4145L16.2931 13.3765C16.3096 13.3523 16.324 13.3269 16.3359 13.3002C16.3486 13.2772 16.359 13.2529 16.367 13.2279L17.9408 8.06182V8.0161C17.9428 7.99837 17.9428 7.98049 17.9408 7.96276V7.92849C17.9427 7.91712 17.9427 7.90555 17.9408 7.89418C17.9426 7.87009 17.9426 7.8459 17.9408 7.82179H18.446C18.49 7.82575 18.5342 7.82575 18.5781 7.82179H18.6131C18.6416 7.81348 18.6689 7.80196 18.6947 7.78751H18.7336L18.8035 7.73418L18.8346 7.71131L18.889 7.64273V7.61989L18.9279 7.55511C18.9257 7.54252 18.9257 7.52962 18.9279 7.51703C18.9258 7.51084 18.9258 7.50416 18.9279 7.49797C18.9361 7.47564 18.9426 7.4527 18.9473 7.42939C18.9455 7.42188 18.9455 7.41404 18.9473 7.40653C18.9454 7.39518 18.9454 7.38359 18.9473 7.37225C18.9473 7.37225 19.0251 7.22366 19.0251 7.21605Z" fill="black"/>
<path d="M8.66085 5.28068C8.68148 5.29897 8.69589 5.32302 8.70214 5.34958C8.70842 5.37615 8.7062 5.40396 8.69584 5.42926L6.97432 11.083C6.95264 11.1447 6.90829 11.1963 6.84996 11.2277C6.8025 11.2589 6.74756 11.2772 6.69061 11.2811H1.21904C1.17232 11.2789 1.12805 11.2599 1.09469 11.2277C1.07484 11.2097 1.06092 11.1864 1.05469 11.1606C1.04845 11.1348 1.05021 11.1078 1.05971 11.083L2.78513 5.42926C2.80501 5.36675 2.84797 5.31377 2.9056 5.28068C2.95384 5.25179 3.00851 5.23479 3.06493 5.23115H8.5365C8.58286 5.23159 8.62731 5.2493 8.66085 5.28068ZM5.80459 9.94384L6.8344 6.56838H3.95096L2.92502 9.94384H5.80459ZM13.8837 5.33782C13.9024 5.35909 13.9257 5.37596 13.952 5.38717C13.9782 5.39838 14.0067 5.40366 14.0353 5.40259H14.7464C14.7735 5.40285 14.8002 5.39634 14.824 5.38367C14.8478 5.37101 14.8679 5.3526 14.8825 5.3302C14.8951 5.3127 14.904 5.2929 14.9087 5.27195C14.9133 5.25101 14.9137 5.22936 14.9096 5.20829L14.7698 4.20251C14.7564 4.15596 14.7325 4.11298 14.6998 4.07679C14.6811 4.05552 14.6578 4.03865 14.6316 4.02744C14.6053 4.01623 14.5768 4.01096 14.5483 4.01202H13.8371C13.81 4.01176 13.7833 4.01827 13.7595 4.03094C13.7357 4.04361 13.7156 4.06201 13.7011 4.08441C13.6739 4.13775 13.6622 4.17203 13.6739 4.20251L13.8177 5.20829C13.825 5.25727 13.8482 5.30265 13.8837 5.33782ZM16.1415 4.19489C16.1282 4.14834 16.1043 4.10536 16.0716 4.06917C16.0537 4.04798 16.0311 4.03112 16.0055 4.01988C15.9799 4.00865 15.9519 4.00335 15.9239 4.0044H15.2089C15.1822 4.00366 15.1559 4.00999 15.1326 4.02274C15.1094 4.03548 15.0901 4.05416 15.0768 4.07679C15.0509 4.11059 15.0397 4.15304 15.0457 4.19489L15.1894 5.20067C15.1985 5.24913 15.2214 5.29406 15.2555 5.3302C15.2745 5.35106 15.2979 5.36764 15.3241 5.37882C15.3502 5.39 15.3785 5.3955 15.4071 5.39497H16.1221C16.1487 5.39531 16.1749 5.38881 16.198 5.3761C16.2212 5.3634 16.2406 5.34495 16.2542 5.32259C16.2678 5.30554 16.2772 5.28574 16.2819 5.26465C16.2866 5.24355 16.2865 5.22169 16.2814 5.20067L16.1415 4.19489ZM13.2581 5.7188L13.1881 5.22353H9.74119C9.68707 5.22645 9.63471 5.24356 9.58962 5.27306C9.561 5.28836 9.53609 5.30957 9.51663 5.33522C9.49719 5.36087 9.48365 5.39035 9.47694 5.42164L9.18936 6.36646C9.17789 6.39007 9.17396 6.41656 9.17812 6.4424C9.1823 6.46824 9.19434 6.49223 9.21267 6.51124C9.24545 6.54143 9.28822 6.55904 9.33315 6.56077H13.5223L12.4925 9.93623H8.315C8.26113 9.93743 8.20867 9.95326 8.16345 9.98193C8.10849 10.0162 8.06835 10.0691 8.05075 10.1305L7.7593 11.0754C7.74978 11.0996 7.74728 11.1259 7.75208 11.1515C7.7569 11.177 7.76878 11.2008 7.78648 11.2201C7.81824 11.2523 7.86134 11.2714 7.90696 11.2734H13.3941C13.4508 11.2687 13.5055 11.2504 13.5534 11.2201C13.6108 11.1885 13.6538 11.1368 13.6739 11.0754L15.2516 5.90929H13.4757C13.4475 5.90983 13.4195 5.90471 13.3935 5.89422C13.3674 5.88374 13.3438 5.86811 13.3242 5.84833C13.292 5.81378 13.2693 5.77186 13.2581 5.72642V5.7188Z" fill="white"/>
</g>
<defs>
<clipPath id="clip0_513_1147">
<rect width="18.3627" height="10.016" fill="white" transform="translate(0.663818 3.65381)"/>
</clipPath>
</defs>
</svg>
