<svg width="17" height="17" viewBox="0 0 17 17" fill="none" xmlns="http://www.w3.org/2000/svg">
<g clip-path="url(#clip0_513_1139)">
<path d="M14.9709 4.60323C14.9709 4.75881 15.0986 4.88493 15.2561 4.88493H15.5413C15.6988 4.88493 15.8265 4.75881 15.8265 4.60323C15.8265 4.44765 15.6988 4.32153 15.5413 4.32153H15.2561C15.0986 4.32153 14.9709 4.44765 14.9709 4.60323Z" fill="#212326"/>
<path d="M6.70078 13.3359H8.08613L7.68282 12.9375C7.57587 12.8319 7.43079 12.7725 7.27953 12.7725H6.70078C4.49579 12.7725 2.70829 11.0068 2.70829 8.82873C2.70829 6.65063 4.49579 4.88494 6.70078 4.88493H11.2636C13.4686 4.88493 15.2561 6.65063 15.2561 8.82873C15.2561 11.0068 13.4686 12.7725 11.2636 12.7725H9.55676C9.32985 12.7725 9.11225 12.6835 8.95179 12.525L8.47931 12.0583C8.21191 11.7941 7.8492 11.6457 7.47104 11.6457H6.70078C5.12578 11.6457 3.84901 10.3845 3.84901 8.82873C3.84901 7.27294 5.12578 6.01173 6.70078 6.01173H11.2636C12.8386 6.01173 14.1154 7.27294 14.1154 8.82873C14.1154 10.3845 12.8386 11.6457 11.2636 11.6457H10.1677C9.94074 11.6457 9.72314 11.5567 9.56269 11.3982L9.09018 10.9315C8.82278 10.6673 8.4601 10.5189 8.08193 10.5189H6.70078C5.7558 10.5189 4.98972 9.76219 4.98972 8.82873C4.98972 7.89527 5.7558 7.13853 6.70078 7.13853H11.2636C12.2086 7.13853 12.9747 7.89527 12.9747 8.82873C12.9747 9.75081 12.2272 10.5005 11.2981 10.5186L11.2979 10.5189H10.8806C10.6537 10.5189 10.4361 10.4299 10.2756 10.2714L9.80313 9.80468C9.58372 9.58792 9.30017 9.44912 8.99653 9.40628L8.9822 9.39213H6.70078C6.38579 9.39213 6.13043 9.13989 6.13043 8.82873C6.13043 8.51758 6.38579 8.26533 6.70078 8.26533H11.2636C11.5786 8.26533 11.834 8.51758 11.834 8.82873C11.834 9.13989 11.5786 9.39213 11.2636 9.39213H10.1229L10.5262 9.79052C10.6332 9.89617 10.7783 9.95553 10.9295 9.95553H11.2636C11.8936 9.95553 12.4043 9.45104 12.4043 8.82873C12.4043 8.20642 11.8936 7.70193 11.2636 7.70193H6.70078C6.07079 7.70193 5.56007 8.20642 5.56007 8.82873C5.56007 9.45104 6.07079 9.95553 6.70078 9.95553H8.79488C9.02179 9.95553 9.23939 10.0446 9.39984 10.203L9.87235 10.6698C10.1398 10.9339 10.5024 11.0823 10.8806 11.0823H11.4062V11.078C12.5998 11.0053 13.545 10.026 13.545 8.82873C13.545 7.58411 12.5236 6.57513 11.2636 6.57513H6.70078C5.4408 6.57513 4.41936 7.58411 4.41936 8.82873C4.41936 10.0734 5.4408 11.0823 6.70078 11.0823H8.08193C8.30884 11.0823 8.52644 11.1714 8.6869 11.3298L9.1594 11.7966C9.42681 12.0607 9.78948 12.2091 10.1677 12.2091H11.2636C13.1536 12.2091 14.6858 10.6957 14.6858 8.82873C14.6858 6.96178 13.1536 5.44833 11.2636 5.44833H6.70078C4.81078 5.44833 3.27865 6.96178 3.27865 8.82873C3.27865 10.6957 4.81078 12.2091 6.70078 12.2091H7.47104C7.69795 12.2091 7.91555 12.2982 8.076 12.4566L8.54851 12.9234C8.81591 13.1875 9.17859 13.3359 9.55676 13.3359H11.2636C13.7836 13.3359 15.8265 11.318 15.8265 8.82873C15.8265 6.33947 13.7836 4.32153 11.2636 4.32153L6.70078 4.32153C4.18079 4.32153 2.13794 6.33948 2.13794 8.82873C2.13794 11.318 4.1808 13.3359 6.70078 13.3359Z" fill="#212326"/>
</g>
<defs>
<clipPath id="clip0_513_1139">
<rect width="13.6885" height="9.0144" fill="white" transform="translate(2.13794 4.32153)"/>
</clipPath>
</defs>
</svg>
