<svg width="17" height="17" viewBox="0 0 17 17" fill="none" xmlns="http://www.w3.org/2000/svg">
<g clip-path="url(#clip0_513_1123)">
<path d="M15.3937 5.17777C15.3937 5.18906 15.3937 5.20317 15.3908 5.21164C15.3761 5.32171 15.3761 5.43178 15.3849 5.54468C15.3908 5.5729 15.3967 5.60112 15.4202 5.6237C15.4584 5.66603 15.5172 5.65757 15.5408 5.60677C15.5525 5.58137 15.5525 5.55596 15.5467 5.53056C15.5172 5.42331 15.5114 5.31042 15.5084 5.20035C15.5084 5.19471 15.5084 5.18624 15.5084 5.17777C15.5408 5.17495 15.5702 5.17213 15.5966 5.17213C15.6172 5.16931 15.6349 5.16648 15.6496 5.15801C15.6937 5.13544 15.6937 5.08746 15.6466 5.06488C15.629 5.05641 15.6055 5.05359 15.5849 5.05359C15.5114 5.05641 15.4379 5.05641 15.3643 5.05641C15.3379 5.05641 15.3114 5.05924 15.2849 5.06206C15.2702 5.06488 15.2526 5.06488 15.2408 5.07335C15.2202 5.08181 15.2085 5.09592 15.2085 5.11568C15.2114 5.13544 15.2202 5.14673 15.2408 5.15519C15.2526 5.16366 15.2673 5.16648 15.282 5.16648C15.3173 5.16931 15.3555 5.17495 15.3937 5.17777ZM16.2024 5.3076C16.2024 5.31042 16.2053 5.31324 16.2053 5.31324C16.2171 5.38945 16.2289 5.46283 16.2377 5.53621C16.2407 5.56161 16.2436 5.58419 16.2612 5.60394C16.2995 5.65192 16.3583 5.64628 16.3847 5.59548C16.3965 5.57008 16.3994 5.54468 16.3936 5.51645C16.3759 5.43178 16.3671 5.34711 16.3494 5.26526C16.3377 5.21446 16.323 5.16648 16.3083 5.12133C16.2995 5.0931 16.2789 5.07334 16.2436 5.07052C16.2083 5.06488 16.1818 5.08181 16.1671 5.10721C16.1495 5.12979 16.1348 5.15237 16.123 5.17777C16.1024 5.22293 16.0848 5.26809 16.0613 5.31042C16.0583 5.32171 16.0554 5.33018 16.0495 5.33864C16.0466 5.333 16.0436 5.33018 16.0436 5.33018C16.0054 5.25962 15.9701 5.18906 15.9319 5.12133C15.926 5.11568 15.9231 5.11004 15.9201 5.10439C15.9025 5.07899 15.8819 5.06488 15.8495 5.06488C15.8201 5.0677 15.7966 5.08464 15.7819 5.11004C15.776 5.12133 15.776 5.12979 15.7731 5.14108C15.7613 5.2314 15.7466 5.32171 15.7349 5.41203C15.729 5.46283 15.726 5.51363 15.726 5.56443C15.7231 5.57572 15.726 5.58983 15.7319 5.60112C15.7378 5.6237 15.7554 5.63781 15.779 5.64063C15.8084 5.64346 15.8289 5.63499 15.8378 5.61241C15.8466 5.59548 15.8495 5.58137 15.8525 5.56725C15.8643 5.51645 15.8731 5.46847 15.8819 5.42049C15.8878 5.39227 15.8907 5.36969 15.8995 5.33864C15.9054 5.34993 15.9113 5.3584 15.9172 5.36687C15.9436 5.40074 15.9701 5.4346 16.0025 5.46283C16.0348 5.48541 16.0613 5.48258 16.0877 5.45718C16.0936 5.45154 16.0966 5.44872 16.1024 5.44307C16.1289 5.40356 16.1613 5.36405 16.1877 5.32453C16.1936 5.31889 16.1965 5.31324 16.2024 5.3076Z" fill="#3A3B7B"/>
<path d="M9.42701 5.23318C9.40656 5.28682 9.40266 5.32546 9.4121 5.35758C9.42253 5.40126 9.44958 5.41555 9.4863 5.40445C9.8317 5.32247 10.5891 5.55515 10.8695 5.62C10.9356 5.63362 10.9894 5.55168 10.9443 5.47822C10.8784 5.40708 10.1214 5.1025 9.83253 5.08589C9.7193 5.07975 9.51688 5.05188 9.42701 5.23318Z" fill="#3A3B7B"/>
<path d="M12.387 4.24721C12.4238 4.2676 12.4444 4.28705 12.4545 4.30879C12.4697 4.3373 12.4617 4.35702 12.4363 4.36709C12.208 4.47404 11.9041 4.93447 11.7815 5.09326C11.7518 5.12979 11.6832 5.10857 11.6729 5.04849C11.675 4.98057 11.9443 4.4809 12.0946 4.34481C12.1537 4.29167 12.2512 4.18741 12.387 4.24721Z" fill="#3A3B7B"/>
<path d="M10.5687 4.02063C10.613 3.98864 10.6589 3.97743 10.6824 3.99822C11.0269 4.28097 11.2095 4.72873 11.3226 5.13865C11.3269 5.1482 11.3272 5.1619 11.3238 5.1762C11.3224 5.18842 11.3131 5.20133 11.2983 5.21132C11.2825 5.22234 11.2689 5.2257 11.2625 5.2162C11.1115 5.01911 10.2492 4.25226 10.5687 4.02063Z" fill="#3A3B7B"/>
<path d="M3.27402 8.92282C3.35658 8.86383 3.44634 8.81471 3.54132 8.7766C3.64069 8.74934 3.74661 8.75385 3.84307 8.7895C3.9395 8.82514 4.02126 8.88995 4.07591 8.97414C4.1248 9.05811 4.14392 9.15506 4.13043 9.25039C4.11693 9.34569 4.07154 9.43422 4.00106 9.50263C3.94643 9.55808 3.8844 9.60638 3.81664 9.6463C3.5146 9.83358 3.20986 10.0106 2.90514 10.1979C2.84279 10.2447 2.77665 10.2868 2.70734 10.3236C2.60192 10.374 2.48144 10.3876 2.36674 10.3618C2.25204 10.336 2.15032 10.2726 2.07919 10.1825C2.02601 10.1187 1.98113 10.0489 1.94554 9.97468C1.65685 9.39232 1.35748 8.81251 1.07949 8.21988C0.951183 7.96335 0.846937 7.6683 0.745363 7.38354C0.701418 7.3008 0.692836 7.20488 0.721446 7.11616C0.750055 7.02744 0.813599 6.95293 0.89856 6.90848C0.983521 6.86403 1.0832 6.85316 1.17639 6.87815C1.26958 6.90315 1.34893 6.96206 1.39757 7.04233C1.54708 7.23303 1.67943 7.43558 1.79318 7.6478C2.08186 8.16088 2.35718 8.67397 2.63517 9.17168C2.65136 9.19918 2.66921 9.22572 2.68863 9.2512C2.89787 9.16677 3.09466 9.05637 3.27402 8.92282Z" fill="#3A3B7B"/>
<path d="M6.25879 8.74383C5.59857 9.48524 4.49195 9.29796 3.93597 8.34361C3.54036 7.66632 3.47086 6.54777 4.33158 5.84227C4.51537 5.69457 4.73515 5.59395 4.97041 5.5498C5.25887 5.51011 5.55302 5.55895 5.81081 5.68935C6.06861 5.81975 6.27686 6.02502 6.40582 6.27584C6.87626 7.09679 6.80944 8.1435 6.25879 8.74383ZM5.99149 7.01469C5.92135 6.81295 5.78064 6.64072 5.59322 6.52724C5.48716 6.45469 5.35829 6.41942 5.22832 6.42736C5.09832 6.43531 4.97516 6.48598 4.87953 6.57086C4.49731 6.89668 4.4171 7.6689 4.69509 8.12812C4.73053 8.203 4.78256 8.26954 4.84759 8.3231C4.91262 8.37666 4.98906 8.41594 5.07156 8.43816C5.15405 8.46041 5.2406 8.46508 5.32518 8.45185C5.40976 8.4386 5.49028 8.4078 5.56116 8.36157C5.76836 8.20738 5.92037 7.99507 5.99604 7.75417C6.07175 7.51323 6.06735 7.25567 5.98349 7.01727L5.99149 7.01469Z" fill="#3A3B7B"/>
<path d="M8.9531 7.33789C8.88551 7.35184 8.81568 7.35268 8.74774 7.34033C8.67982 7.32799 8.61512 7.30275 8.55751 7.26606C8.50709 7.23838 8.4637 7.20034 8.43043 7.15463C8.39719 7.10893 8.3749 7.05673 8.3652 7.00176C8.35547 6.94682 8.35858 6.89049 8.37425 6.83682C8.38994 6.78315 8.41785 6.73348 8.45594 6.69139C8.52229 6.6068 8.61649 6.54624 8.72324 6.51951C9.00194 6.44187 9.28886 6.39454 9.57859 6.37841C9.64226 6.3713 9.70675 6.37647 9.76828 6.39362C9.82984 6.41078 9.88718 6.43954 9.93699 6.47827C9.98678 6.51698 10.028 6.56486 10.0583 6.61908C10.0885 6.6733 10.1072 6.73278 10.1132 6.79402C10.1967 7.09482 10.2059 7.41022 10.1399 7.71503C9.89935 8.70016 9.07072 9.0388 8.14051 8.72325C7.8794 8.63888 7.65046 8.48168 7.48296 8.27173C7.25956 8.01889 7.10116 7.71925 7.02053 7.3969C6.95521 7.10985 6.96236 6.81199 7.04142 6.52815C7.12046 6.24431 7.26911 5.98273 7.47494 5.76526C7.67028 5.52889 7.92381 5.34287 8.2127 5.22394C8.39523 5.12737 8.60884 5.09991 8.81145 5.14698C8.8574 5.15918 8.89912 5.18297 8.93227 5.21587C8.96543 5.24877 8.98881 5.28958 8.99999 5.33408C9.01118 5.37857 9.00975 5.42513 8.99587 5.46892C8.98197 5.51271 8.95615 5.55213 8.92104 5.58311C8.85429 5.6411 8.78177 5.69266 8.70452 5.73704C8.46688 5.88228 8.26008 6.06945 8.09507 6.28861C7.98691 6.43043 7.91242 6.59329 7.87687 6.7657C7.84129 6.9381 7.84553 7.1159 7.88927 7.28659C7.94988 7.51932 8.0844 7.72821 8.27416 7.88433C8.86222 8.39744 9.6267 7.90229 9.49305 7.20192C9.29794 7.24811 9.12685 7.29685 8.9531 7.33789Z" fill="#3A3B7B"/>
<path d="M12.5458 8.78482C11.6771 9.29793 10.6881 8.78482 10.4716 7.70733C10.3139 6.93769 10.6132 5.86018 11.6611 5.44971C11.884 5.36425 12.1258 5.33425 12.364 5.36248C12.6503 5.41277 12.9129 5.54802 13.1148 5.74916C13.3166 5.9503 13.4477 6.20717 13.4894 6.4836C13.6658 7.39946 13.2648 8.37691 12.5458 8.78482ZM12.8479 7.05825C12.8476 6.84514 12.769 6.63891 12.626 6.47589C12.5495 6.37507 12.439 6.30283 12.3132 6.27147C12.1875 6.24013 12.0543 6.25162 11.9364 6.30401C11.4659 6.49898 11.1345 7.20705 11.2547 7.72786C11.2639 7.80959 11.2916 7.88841 11.3358 7.9588C11.3801 8.02919 11.4398 8.08947 11.5108 8.13541C11.5818 8.18134 11.6625 8.21183 11.747 8.22475C11.8316 8.23765 11.9181 8.23267 12.0005 8.21016C12.2492 8.12679 12.4645 7.97097 12.6164 7.76445C12.7683 7.55794 12.8492 7.31104 12.8479 7.05825Z" fill="#3A3B7B"/>
<path d="M14.3677 9.0004C14.3546 9.09429 14.3032 9.17934 14.2247 9.23684C14.1463 9.29432 14.0473 9.31956 13.9494 9.30697C13.8516 9.29438 13.763 9.245 13.7031 9.1697C13.6432 9.09442 13.6169 8.99936 13.63 8.90547C13.6431 8.81157 13.6946 8.72653 13.773 8.66903C13.8515 8.61153 13.9505 8.58631 14.0483 8.5989C14.1462 8.61148 14.2348 8.66084 14.2947 8.73614C14.3546 8.81144 14.3809 8.9065 14.3677 9.0004ZM14.1352 5.53956C14.186 5.46504 14.2606 5.40829 14.3478 5.37778C14.435 5.34726 14.5301 5.34462 14.619 5.37024C14.7094 5.39194 14.7892 5.44277 14.8452 5.51423C14.9011 5.58568 14.9298 5.67342 14.9264 5.76276C14.9146 5.90604 14.8923 6.04836 14.8596 6.18862C14.7714 6.66324 14.6858 7.13784 14.5923 7.60734C14.5495 7.79462 14.4934 7.9742 14.4319 8.16404C14.4105 8.22339 14.3748 8.27701 14.3277 8.32054C14.2984 8.35328 14.261 8.37839 14.2189 8.39355C14.1768 8.40873 14.1314 8.41346 14.0869 8.40732C14.0424 8.40118 14.0002 8.38437 13.9642 8.35845C13.9283 8.33251 13.8998 8.29829 13.8813 8.25897C13.8495 8.18842 13.8322 8.11261 13.8305 8.03577C13.8305 7.71765 13.8305 7.39697 13.8519 7.07627C13.8882 6.61862 13.9597 6.16415 14.0657 5.71658C14.0782 5.65661 14.1017 5.59927 14.1352 5.54726V5.53956Z" fill="#3A3B7B"/>
<path fill-rule="evenodd" clip-rule="evenodd" d="M2.14479 11.0619C2.11323 11.1296 2.10457 11.2049 2.12 11.2775C2.13026 11.3731 2.15279 11.4672 2.18709 11.5575C2.22991 11.6682 2.27783 11.7776 2.33691 11.9124C2.35049 11.9435 2.36469 11.9759 2.37955 12.0099C2.45923 12.1926 2.55919 12.4261 2.69254 12.764C2.73028 12.86 2.7638 12.9567 2.79755 13.0542C2.81118 13.0935 2.82487 13.133 2.83887 13.1726C2.88908 13.3134 2.97546 13.4398 3.08997 13.54C3.13859 13.5951 3.20308 13.6352 3.2754 13.6553C3.34913 13.6758 3.42754 13.6745 3.50049 13.6516C3.57343 13.6287 3.6375 13.5852 3.68437 13.5269C3.73032 13.4697 3.75765 13.4008 3.76296 13.3288C3.79278 13.1885 3.7826 13.0431 3.73346 12.9079C3.65548 12.6834 3.56664 12.4585 3.46419 12.2386L3.46372 12.2376C3.29519 11.8936 3.12388 11.5519 2.94447 11.2101L2.94313 11.2077C2.8906 11.1186 2.82235 11.039 2.74142 10.9724C2.68889 10.913 2.61642 10.8729 2.53639 10.8591C2.45466 10.845 2.37036 10.8592 2.29855 10.8992C2.23062 10.9364 2.17677 10.9934 2.14479 11.0619Z" fill="#3A3B7B"/>
<path fill-rule="evenodd" clip-rule="evenodd" d="M4.71868 10.2148C4.45443 10.1491 4.17845 10.1395 3.90999 10.1867C3.70205 10.2064 3.49755 10.2524 3.35554 10.3436C3.28331 10.39 3.22491 10.4496 3.19243 10.5253C3.15977 10.6015 3.1556 10.6886 3.18237 10.7856C3.23124 10.9634 3.2947 11.1362 3.35793 11.3085L3.36818 11.3364L3.36843 11.337C3.55883 11.8375 3.75106 12.3363 3.94503 12.8333C3.96765 12.9117 3.99964 12.9872 4.04035 13.0585L4.04111 13.0598C4.09489 13.1484 4.16386 13.2276 4.24512 13.2941C4.28576 13.3307 4.33602 13.356 4.39052 13.3673C4.44555 13.3787 4.50278 13.3754 4.55598 13.3577C4.60919 13.34 4.65631 13.3087 4.69222 13.267C4.72755 13.2261 4.75069 13.1767 4.75918 13.1242C4.79424 12.9816 4.78301 12.8321 4.72697 12.6957C4.70949 12.6499 4.69577 12.603 4.68131 12.5536C4.67649 12.5371 4.6716 12.5204 4.66645 12.5033C5.11045 12.3368 5.58289 12.1128 5.74902 11.5917C5.81407 11.4116 5.8195 11.2167 5.76453 11.0335C5.70952 10.8501 5.59665 10.6876 5.44148 10.5683C5.23029 10.4013 4.9836 10.2806 4.71868 10.2148ZM3.98621 10.8539C3.99495 10.8515 4.00376 10.8492 4.01259 10.8471C4.30166 10.8035 4.5974 10.8616 4.84538 11.0107C4.95466 11.0837 4.99942 11.1647 5.00711 11.2427C5.01505 11.323 4.98463 11.41 4.92352 11.4937C4.80805 11.6517 4.59733 11.7781 4.40699 11.8017C4.26823 11.495 4.12732 11.1759 3.98621 10.8539Z" fill="#3A3B7B"/>
<path d="M6.48033 9.65332C6.79501 9.51384 7.18482 9.48974 7.48984 9.58782C7.56666 9.60929 7.63331 9.65574 7.67839 9.71923C7.72318 9.78232 7.74385 9.85834 7.73694 9.93435C7.73649 9.98368 7.72387 10.0322 7.70013 10.076C7.67597 10.1206 7.64098 10.1589 7.59811 10.1878C7.55525 10.2166 7.50578 10.2352 7.45389 10.2418C7.40197 10.2485 7.34918 10.243 7.29993 10.2259L7.29618 10.2246L7.29266 10.2228C7.26747 10.2102 7.2407 10.2007 7.21302 10.1944L7.21127 10.1941C6.9967 10.1394 6.79429 10.23 6.72036 10.3414C6.6851 10.3945 6.68073 10.4481 6.7101 10.4968C6.74155 10.5491 6.81868 10.6077 6.97477 10.6494C7.0177 10.6607 7.0617 10.6716 7.10634 10.6827C7.22976 10.7134 7.35803 10.7453 7.48206 10.7894L7.48253 10.7896C8.05474 10.9986 8.26782 11.4313 8.19487 11.8384C8.12271 12.2409 7.77245 12.6073 7.24572 12.6937C7.05406 12.7344 6.8546 12.7265 6.66708 12.6706C6.47909 12.6146 6.30964 12.5123 6.17557 12.374L6.17207 12.3703C6.12975 12.3182 6.10128 12.257 6.08866 12.192C6.07705 12.1334 6.08317 12.0728 6.10626 12.0173C6.12921 11.9622 6.16804 11.9145 6.21814 11.8798C6.27107 11.8404 6.33486 11.8168 6.40164 11.8118C6.4682 11.8069 6.5348 11.8208 6.59324 11.8518C6.65161 11.8788 6.70591 11.9134 6.75464 11.9544L6.75556 11.9552C6.84177 12.0308 6.94608 12.0506 7.0461 12.0323C7.14758 12.0138 7.24301 11.9561 7.30439 11.8797C7.36536 11.8037 7.38984 11.7134 7.36079 11.6258C7.33156 11.5375 7.24366 11.4386 7.05054 11.356C7.00006 11.3354 6.94772 11.3188 6.89327 11.3027C6.87858 11.2983 6.86365 11.294 6.84854 11.2896C6.80828 11.2778 6.76686 11.2658 6.72624 11.2524C6.69826 11.2433 6.67051 11.2346 6.64303 11.226C6.56791 11.2025 6.49467 11.1796 6.42419 11.1489C6.2708 11.0988 6.13827 11.0026 6.04634 10.8744C5.95403 10.7458 5.90758 10.592 5.9139 10.4359C5.91439 10.0556 6.16396 9.79358 6.48033 9.65332Z" fill="#3A3B7B"/>
<path d="M10.4699 9.61272C10.4089 9.58412 10.3414 9.57054 10.2736 9.5732C10.2058 9.57589 10.1397 9.59472 10.0813 9.62806C10.0233 9.66116 9.97477 9.7075 9.93998 9.76297C9.90808 9.80969 9.886 9.86193 9.875 9.91679C9.86399 9.9716 9.86426 10.0279 9.87576 10.0826C9.88712 10.1529 9.89972 10.2212 9.91216 10.2886C9.93276 10.4002 9.9528 10.5092 9.96603 10.6204L9.96652 10.6232C9.99663 10.7976 10.0124 10.9739 10.0138 11.1506L10.0139 11.1531C10.0242 11.3439 9.95648 11.531 9.82523 11.6747L9.82315 11.6773C9.78044 11.7298 9.72335 11.7699 9.65823 11.7931C9.59313 11.8162 9.5226 11.8215 9.45453 11.8084C9.38645 11.7953 9.32352 11.7643 9.27277 11.7188C9.22202 11.6733 9.18541 11.615 9.16714 11.5507C9.12814 11.4153 9.10556 11.2759 9.09983 11.1355L9.16645 10.1174C9.16743 10.1042 9.16855 10.0905 9.1697 10.0767C9.17223 10.0458 9.17483 10.0143 9.17591 9.98496C9.17748 9.94174 9.17613 9.89729 9.16564 9.85522C9.1549 9.81222 9.13448 9.77131 9.09826 9.73648C9.06239 9.702 9.01397 9.67656 8.95304 9.65924C8.84286 9.62863 8.7497 9.6296 8.67207 9.66122C8.59439 9.69284 8.54118 9.75155 8.50352 9.81937C8.46615 9.88662 8.44214 9.96623 8.42398 10.046C8.41051 10.1051 8.39968 10.1673 8.38939 10.2264C8.38583 10.2468 8.38235 10.2668 8.37884 10.2862L8.37875 10.2868C8.32369 10.611 8.3073 10.9403 8.3299 11.2681C8.33411 11.4453 8.3726 11.6201 8.44344 11.7838C8.52336 11.9949 8.6681 12.1779 8.85858 12.3085C9.04945 12.4394 9.27723 12.5115 9.51175 12.5153C9.74628 12.5191 9.97648 12.4544 10.1719 12.3298C10.3669 12.2054 10.5181 12.0272 10.6054 11.8186C10.7275 11.5529 10.7848 11.2639 10.773 10.9737C10.7658 10.7618 10.7538 10.5483 10.7419 10.3359C10.736 10.2317 10.7302 10.1278 10.7249 10.0244C10.7223 9.92081 10.6867 9.82045 10.6229 9.73681C10.5834 9.68393 10.5308 9.64129 10.4699 9.61272Z" fill="#3A3B7B"/>
<path d="M12.6298 11.2091C12.6236 11.2166 12.6171 11.2245 12.6102 11.2326C12.5606 10.9578 12.5146 10.6831 12.4685 10.4079C12.452 10.3092 12.4354 10.2101 12.4187 10.1112L12.4168 10.1002L12.4107 10.0907C12.3992 10.0728 12.3981 10.0552 12.3981 10.0177V10.0133L12.3974 10.0091C12.3849 9.93162 12.3484 9.85956 12.2927 9.8023C12.2371 9.7452 12.1649 9.70546 12.0855 9.68821C12.0062 9.66944 11.9229 9.67357 11.846 9.70011C11.7693 9.72658 11.7025 9.77416 11.6539 9.83687C11.6134 9.885 11.5803 9.93838 11.5554 9.99542C11.499 10.1183 11.4422 10.2415 11.3851 10.365L11.3842 10.3671C11.2418 10.6755 11.0985 10.9859 10.9593 11.2988L10.9589 11.2998C10.8734 11.5026 10.8029 11.7164 10.7326 11.9295C10.7186 11.972 10.7046 12.0145 10.6904 12.0569C10.665 12.1242 10.654 12.1956 10.6578 12.267C10.6531 12.3309 10.6691 12.3947 10.7035 12.4497C10.7385 12.5058 10.7911 12.55 10.8536 12.5759C10.9199 12.6038 10.9941 12.6098 11.0643 12.5928C11.1344 12.5758 11.1966 12.537 11.2412 12.4824C11.2981 12.4152 11.3471 12.3419 11.387 12.2642C11.5049 12.0328 11.6176 11.7985 11.7298 11.5652C11.7732 11.475 11.8153 11.3942 11.8633 11.3062C11.8666 11.3171 11.8699 11.3277 11.8734 11.3383C11.9237 11.5507 12.0086 11.7542 12.1249 11.9413C12.1469 11.9809 12.1776 12.0156 12.2148 12.0428C12.2524 12.0704 12.2959 12.0898 12.3422 12.0996C12.3884 12.1095 12.4363 12.1095 12.4826 12.0998C12.5288 12.09 12.5724 12.0706 12.6101 12.0432L12.6847 11.9896L13.2635 11.5216L13.2293 11.731C13.1823 12.0188 13.1357 12.3042 13.0861 12.5897C13.0537 12.7162 13.0538 12.8484 13.0863 12.9748C13.1004 13.046 13.1362 13.1116 13.1893 13.1631C13.2428 13.2151 13.3114 13.2503 13.3861 13.2644C13.4608 13.2785 13.5382 13.2707 13.6082 13.242C13.6772 13.2138 13.7359 13.1666 13.7769 13.1064C13.8723 12.9927 13.9317 12.8551 13.948 12.71C13.9726 12.505 14.0004 12.2972 14.0281 12.0895C14.0601 11.85 14.0921 11.6107 14.1191 11.3759L14.1192 11.3752C14.1452 11.1182 14.1578 10.8601 14.1569 10.6019C14.1626 10.5203 14.1415 10.439 14.0964 10.3696C14.0511 10.2999 13.9841 10.2457 13.9049 10.2146C13.8224 10.1787 13.7302 10.1691 13.6417 10.1873C13.5537 10.2053 13.4741 10.2498 13.4144 10.3142C13.3076 10.409 13.2075 10.5104 13.1146 10.6178L13.1139 10.6186C13.0125 10.7399 12.9118 10.8636 12.8117 10.9865C12.7508 11.0612 12.6901 11.1357 12.6298 11.2091Z" fill="#3A3B7B"/>
</g>
<defs>
<clipPath id="clip0_513_1123">
<rect width="15.6917" height="9.68213" fill="white" transform="translate(0.704834 3.98767)"/>
</clipPath>
</defs>
</svg>
