<svg width="18" height="17" viewBox="0 0 18 17" fill="none" xmlns="http://www.w3.org/2000/svg">
<g clip-path="url(#clip0_513_1143)">
<path d="M4.68712 5.32312C4.00913 5.32312 3.35891 5.59245 2.8795 6.07186L1.3149 7.63646C0.835492 8.11587 0.566162 8.76609 0.566162 9.44408C0.566162 10.8559 1.71069 12.0005 3.12253 12.0005C3.80053 12.0005 4.45074 11.7311 4.93015 11.2517L6.01239 10.1695C6.01242 10.1695 6.01239 10.1694 6.01239 10.1695L9.16567 7.01618C9.39464 6.78722 9.70518 6.65859 10.029 6.65859C10.5711 6.65859 11.0307 7.01191 11.19 7.50084L12.1852 6.50567C11.7312 5.79462 10.9352 5.32312 10.029 5.32312C9.35099 5.32312 8.70078 5.59245 8.22137 6.07186L3.98585 10.3074C3.75688 10.5364 3.44634 10.665 3.12253 10.665C2.44824 10.665 1.90163 10.1184 1.90163 9.44408C1.90163 9.12027 2.03026 8.80973 2.25922 8.58077L3.82381 7.01618C4.05278 6.78722 4.36332 6.65859 4.68712 6.65859C5.22925 6.65859 5.68883 7.01192 5.84818 7.50087L6.84337 6.50569C6.38937 5.79463 5.59332 5.32312 4.68712 5.32312Z" fill="#394149"/>
<path d="M9.32779 10.3074C9.09883 10.5364 8.78829 10.665 8.46448 10.665C7.92244 10.665 7.46288 10.3118 7.30349 9.82291L6.30835 10.8181C6.76236 11.529 7.55837 12.0005 8.46448 12.0005C9.14248 12.0005 9.79269 11.7311 10.2721 11.2517L14.5076 7.01618C14.7366 6.78722 15.0471 6.65859 15.3709 6.65859C16.0452 6.65859 16.5918 7.2052 16.5918 7.87949C16.5918 8.2033 16.4632 8.51384 16.2342 8.7428L14.6697 10.3074C14.4407 10.5364 14.1302 10.665 13.8063 10.665C13.2643 10.665 12.8047 10.3117 12.6453 9.8228L11.6502 10.818C12.1042 11.529 12.9002 12.0005 13.8063 12.0005C14.4843 12.0005 15.1346 11.7311 15.614 11.2517L17.1786 9.68711C17.658 9.2077 17.9273 8.55749 17.9273 7.87949C17.9273 6.46765 16.7828 5.32312 15.3709 5.32312C14.6929 5.32312 14.0427 5.59245 13.5633 6.07186L9.32779 10.3074Z" fill="#394149"/>
</g>
<defs>
<clipPath id="clip0_513_1143">
<rect width="17.3611" height="6.67733" fill="white" transform="translate(0.566162 5.32312)"/>
</clipPath>
</defs>
</svg>
