<svg width="20" height="17" viewBox="0 0 20 17" fill="none" xmlns="http://www.w3.org/2000/svg">
<g clip-path="url(#clip0_513_1119)">
<path d="M19.299 7.21605C19.3009 7.20213 19.3009 7.18805 19.299 7.17413C19.3008 7.16279 19.3008 7.15122 19.299 7.13985L19.1629 6.16074C19.1433 6.0436 19.0908 5.93411 19.0114 5.84453L18.9881 5.81786L18.9453 5.77595L16.5904 3.78725L16.6564 3.85202C16.6024 3.78862 16.5346 3.73791 16.4579 3.70363C16.3812 3.66934 16.2977 3.65235 16.2134 3.65391H15.4984C15.3821 3.65165 15.2685 3.68789 15.1758 3.75677C15.0785 3.68831 14.9614 3.65225 14.8416 3.65391H14.1266C14.0328 3.65242 13.9403 3.67523 13.8584 3.72006C13.7765 3.76488 13.7082 3.83012 13.6603 3.90916C13.5864 4.02206 13.5587 4.15808 13.5826 4.29014L13.6719 4.90732C13.6127 4.87441 13.5457 4.85734 13.4776 4.8578H10.0151C9.89092 4.85856 9.76955 4.89426 9.66539 4.96066C9.56467 5.02246 9.48383 5.11096 9.43223 5.21591L9.16409 4.99114C9.05855 4.89541 8.91925 4.84352 8.77549 4.84637H3.34276C3.21809 4.84859 3.09619 4.88274 2.98914 4.94542C2.84268 5.02946 2.73535 5.16611 2.68991 5.3264L0.964492 10.9839C0.932254 11.0771 0.929082 11.1777 0.955384 11.2727C0.981686 11.3677 1.03627 11.4528 1.11216 11.5173C1.13194 11.5337 1.1527 11.549 1.17434 11.563C1.17434 11.563 1.13936 11.5401 1.11993 11.5211L3.4749 13.5136C3.57452 13.6035 3.70477 13.6538 3.84017 13.6546H9.31566C9.4407 13.6514 9.56269 13.6159 9.66929 13.5517C9.72958 13.5194 9.78352 13.4768 9.82861 13.426L9.84805 13.3993L9.87914 13.3612L9.90245 13.3193L10.1589 13.5365C10.2571 13.6228 10.3845 13.6703 10.5164 13.6698H16.0036C16.1285 13.6657 16.2502 13.6303 16.3572 13.5669C16.4161 13.5327 16.4698 13.4903 16.5165 13.4412L16.536 13.4145L16.567 13.3765C16.5836 13.3523 16.5979 13.3269 16.6098 13.3002C16.6225 13.2772 16.6329 13.2529 16.6409 13.2279L18.2147 8.06182V8.0161C18.2167 7.99837 18.2167 7.98049 18.2147 7.96276V7.92849C18.2166 7.91712 18.2166 7.90555 18.2147 7.89418C18.2165 7.87009 18.2165 7.8459 18.2147 7.82179H18.7199C18.7639 7.82575 18.8081 7.82575 18.852 7.82179H18.887C18.9155 7.81348 18.9429 7.80196 18.9687 7.78751H19.0075L19.0775 7.73418L19.1085 7.71131L19.1629 7.64273V7.61989L19.2018 7.55511C19.1996 7.54252 19.1996 7.52962 19.2018 7.51703C19.1997 7.51084 19.1997 7.50416 19.2018 7.49797C19.2101 7.47564 19.2166 7.4527 19.2212 7.42939C19.2194 7.42188 19.2194 7.41404 19.2212 7.40653C19.2194 7.39518 19.2194 7.38359 19.2212 7.37225C19.2212 7.37225 19.299 7.22366 19.299 7.21605Z" fill="black"/>
<path d="M8.93478 5.28068C8.95541 5.29897 8.96982 5.32302 8.97607 5.34958C8.98234 5.37615 8.98012 5.40396 8.96977 5.42926L7.24824 11.083C7.22657 11.1447 7.18221 11.1963 7.12389 11.2277C7.07643 11.2589 7.02149 11.2772 6.96454 11.2811H1.49297C1.44624 11.2789 1.40197 11.2599 1.36861 11.2277C1.34877 11.2097 1.33484 11.1864 1.32861 11.1606C1.32238 11.1348 1.32414 11.1078 1.33364 11.083L3.05905 5.42926C3.07893 5.36675 3.12189 5.31377 3.17952 5.28068C3.22777 5.25179 3.28244 5.23479 3.33885 5.23115H8.81042C8.85679 5.23159 8.90124 5.2493 8.93478 5.28068ZM6.07852 9.94384L7.10833 6.56838H4.22488L3.19895 9.94384H6.07852ZM14.1577 5.33782C14.1763 5.35909 14.1997 5.37596 14.2259 5.38717C14.2521 5.39838 14.2806 5.40366 14.3092 5.40259H15.0204C15.0475 5.40285 15.0741 5.39634 15.0979 5.38367C15.1217 5.37101 15.1418 5.3526 15.1564 5.3302C15.169 5.3127 15.1779 5.2929 15.1826 5.27195C15.1873 5.25101 15.1876 5.22936 15.1836 5.20829L15.0437 4.20251C15.0304 4.15596 15.0064 4.11298 14.9737 4.07679C14.9551 4.05552 14.9317 4.03865 14.9055 4.02744C14.8793 4.01623 14.8508 4.01096 14.8222 4.01202H14.111C14.0839 4.01176 14.0572 4.01827 14.0335 4.03094C14.0097 4.04361 13.9895 4.06201 13.975 4.08441C13.9478 4.13775 13.9362 4.17203 13.9478 4.20251L14.0916 5.20829C14.099 5.25727 14.1221 5.30265 14.1577 5.33782ZM16.4155 4.19489C16.4021 4.14834 16.3782 4.10536 16.3455 4.06917C16.3276 4.04798 16.305 4.03112 16.2794 4.01988C16.2538 4.00865 16.2259 4.00335 16.1978 4.0044H15.4828C15.4562 4.00366 15.4298 4.00999 15.4066 4.02274C15.3833 4.03548 15.364 4.05416 15.3507 4.07679C15.3248 4.11059 15.3136 4.15304 15.3196 4.19489L15.4634 5.20067C15.4724 5.24913 15.4953 5.29406 15.5294 5.3302C15.5484 5.35106 15.5718 5.36764 15.598 5.37882C15.6242 5.39 15.6525 5.3955 15.681 5.39497H16.396C16.4226 5.39531 16.4488 5.38881 16.472 5.3761C16.4952 5.3634 16.5146 5.34495 16.5282 5.32259C16.5417 5.30554 16.5511 5.28574 16.5558 5.26465C16.5606 5.24355 16.5604 5.22169 16.5554 5.20067L16.4155 4.19489ZM13.532 5.7188L13.462 5.22353H10.0151C9.96099 5.22645 9.90864 5.24356 9.86355 5.27306C9.83493 5.28836 9.81001 5.30957 9.79055 5.33522C9.77112 5.36087 9.75758 5.39035 9.75087 5.42164L9.46329 6.36646C9.45181 6.39007 9.44789 6.41656 9.45204 6.4424C9.45623 6.46824 9.46826 6.49223 9.4866 6.51124C9.51937 6.54143 9.56214 6.55904 9.60708 6.56077H13.7963L12.7665 9.93623H8.58892C8.53506 9.93743 8.4826 9.95326 8.43738 9.98193C8.38242 10.0162 8.34228 10.0691 8.32468 10.1305L8.03322 11.0754C8.02371 11.0996 8.02121 11.1259 8.026 11.1515C8.03082 11.177 8.04271 11.2008 8.06041 11.2201C8.09216 11.2523 8.13526 11.2714 8.18089 11.2734H13.668C13.7248 11.2687 13.7795 11.2504 13.8273 11.2201C13.8847 11.1885 13.9278 11.1368 13.9478 11.0754L15.5255 5.90929H13.7496C13.7214 5.90983 13.6935 5.90471 13.6674 5.89422C13.6413 5.88374 13.6177 5.86811 13.5981 5.84833C13.5659 5.81378 13.5432 5.77186 13.532 5.72642V5.7188Z" fill="white"/>
</g>
<defs>
<clipPath id="clip0_513_1119">
<rect width="18.3627" height="10.016" fill="white" transform="translate(0.937744 3.65381)"/>
</clipPath>
</defs>
</svg>
