<svg width="23" height="20" viewBox="0 0 23 20" fill="none" xmlns="http://www.w3.org/2000/svg">
<path d="M22.6287 13.1397C22.6287 16.4587 19.9381 19.1493 16.6191 19.1493L7.60467 19.1493C6.68272 19.1493 5.93534 18.4019 5.93534 17.48L5.93534 6.12849C5.93534 4.2846 7.43011 2.78983 9.274 2.78983L20.9593 2.78983C21.8813 2.78983 22.6287 3.53722 22.6287 4.45916L22.6287 13.1397Z" fill="#E8F5E9"/>
<path d="M10.3797 8.3469C10.2993 8.3469 10.2246 8.32479 10.1583 8.28924V8.29019C10.1583 8.41667 10.1092 8.53545 10.02 8.62441C9.93078 8.71361 9.81209 8.76277 9.68575 8.76277C9.60419 8.76277 9.5286 8.74012 9.46157 8.70362C9.45481 8.81933 9.40856 8.92748 9.32605 9.01008C9.23685 9.09928 9.11816 9.14844 8.99174 9.14844C8.74058 9.14844 8.53661 8.95101 8.52191 8.70354C8.4442 8.74554 8.35634 8.76757 8.26572 8.76175C8.01864 8.74554 7.82515 8.53207 7.82515 8.27563V6.15002L7.58311 6.56934C7.49092 6.72973 7.31836 6.82931 7.13256 6.82931C7.04202 6.82931 6.95259 6.80555 6.87338 6.76017C6.77474 6.70298 6.70419 6.61119 6.67484 6.50137C6.64535 6.39149 6.66061 6.27657 6.71763 6.17808C6.71771 6.17808 7.50956 4.80682 7.55787 4.72259C7.56361 4.70993 7.57998 4.6732 7.5939 4.64189C7.60719 4.612 7.6186 4.58132 7.62953 4.55049C7.86833 3.87632 8.45962 3.45754 9.17273 3.45754C10.0988 3.45754 10.8522 4.27448 10.8522 5.27864L10.8522 7.87424C10.8522 8.00057 10.8032 8.11926 10.714 8.20855C10.6248 8.29775 10.5061 8.34691 10.3797 8.34691L10.3797 8.3469ZM9.17274 3.70865C8.55998 3.70865 8.07159 4.05476 7.86622 4.63447C7.85309 4.67128 7.8394 4.70809 7.82343 4.74396C7.7771 4.84787 7.7771 4.84787 7.76404 4.86281L7.76231 4.86132C7.69766 4.98332 7.50557 5.31596 6.93507 6.30376C6.91163 6.34427 6.90541 6.39131 6.91737 6.4363C6.92948 6.48129 6.95851 6.5192 6.9987 6.54241C7.12345 6.61406 7.2943 6.56781 7.36541 6.44393L7.842 5.61879C7.87047 5.56963 7.92805 5.54548 7.98327 5.56043C8.03817 5.57514 8.07632 5.62493 8.07632 5.68172V8.27571C8.07632 8.3981 8.16866 8.50373 8.28218 8.5112C8.34762 8.51466 8.40866 8.49272 8.45452 8.44694C8.49621 8.40525 8.51917 8.34972 8.51917 8.29033V6.59383C8.51917 6.52445 8.57541 6.46821 8.64479 6.46821C8.71417 6.46821 8.77041 6.52437 8.77041 6.59383L8.77033 8.67594C8.77033 8.79802 8.86967 8.89737 8.99175 8.89737C9.05106 8.89737 9.10675 8.8744 9.14852 8.83271C9.19021 8.79094 9.21317 8.73525 9.21317 8.67594V6.59383C9.21317 6.52445 9.26934 6.46821 9.33879 6.46821C9.40817 6.46821 9.46441 6.52437 9.46441 6.59383L9.46433 8.27082V8.29032C9.46433 8.41232 9.56368 8.51166 9.68583 8.51166C9.74506 8.51166 9.80059 8.48862 9.8426 8.44677C9.88429 8.40516 9.90725 8.34963 9.90725 8.29024V6.59374C9.90725 6.52436 9.96342 6.46812 10.0329 6.46812C10.1022 6.46812 10.1585 6.52428 10.1585 6.59374L10.1583 7.8743C10.1583 7.99646 10.2577 8.0958 10.3797 8.0958C10.4391 8.0958 10.4946 8.07276 10.5363 8.03115C10.5781 7.9893 10.601 7.93361 10.601 7.8743L10.6011 5.2787C10.6011 4.41308 9.96035 3.70868 9.17273 3.70868L9.17274 3.70865Z" fill="#103E13"/>
<path d="M5.44426 10.1509L7.26708 9.05736C7.48685 8.92537 7.76963 8.98146 7.91058 9.1851C7.96203 9.25928 7.9883 9.34572 7.99239 9.43375C8.06035 9.39827 8.13429 9.379 8.20956 9.379C8.2481 9.379 8.2868 9.3838 8.32503 9.39332C8.4475 9.42391 8.5507 9.50045 8.6156 9.60868C8.68057 9.71707 8.69953 9.84409 8.66893 9.96642C8.64069 10.0796 8.57187 10.1749 8.47614 10.2402C8.54308 10.2797 8.60081 10.3336 8.64187 10.4022C8.70685 10.5106 8.7258 10.6376 8.69528 10.76C8.66468 10.8823 8.58815 10.9855 8.47976 11.0506L8.47913 11.051C8.54489 11.0904 8.6016 11.1437 8.64219 11.2113C8.70724 11.3197 8.7262 11.4467 8.6956 11.5692C8.66492 11.6916 8.58839 11.7948 8.48016 11.8597L6.25447 13.195C5.83907 13.4441 5.35886 13.5301 4.90249 13.4369C4.44202 13.3428 4.06068 13.0781 3.82881 12.6916C3.46186 12.08 3.51685 11.3574 3.97204 10.806C3.99289 10.7808 4.01342 10.7552 4.03206 10.7286C4.0518 10.7005 4.07485 10.6674 4.08272 10.6561C4.12983 10.572 4.89865 9.18678 4.89857 9.18694C4.9762 9.04685 5.12172 8.96755 5.2718 8.96763C5.3418 8.96763 5.41283 8.98486 5.47836 9.0212C5.55749 9.0654 5.62395 9.12982 5.67044 9.20746C5.76601 9.36674 5.76939 9.56607 5.67941 9.72738L5.44426 10.1509ZM5.4552 9.33659C5.43082 9.29593 5.39731 9.26352 5.35632 9.24055C5.27161 9.19367 5.16495 9.22419 5.11831 9.30859C4.56818 10.2997 4.38065 10.6374 4.30828 10.7576L4.30993 10.758C4.30387 10.7782 4.30387 10.7782 4.23765 10.8728C4.21515 10.9048 4.19069 10.9356 4.16575 10.9658C3.77434 11.4401 3.72889 12.0369 4.04407 12.5624C4.2393 12.8879 4.56196 13.111 4.95265 13.1908C5.34758 13.2711 5.76385 13.1964 6.12513 12.9796L8.35102 11.6443C8.40184 11.6138 8.43771 11.5655 8.45202 11.5081C8.46634 11.4509 8.45745 11.3913 8.42693 11.3405C8.36416 11.2359 8.22785 11.2015 8.12323 11.2645L7.02517 11.9233C6.9657 11.959 6.88846 11.9398 6.85283 11.8803C6.81712 11.8208 6.83639 11.7436 6.89585 11.7079L7.994 11.0492L8.35063 10.8352C8.40145 10.8047 8.43739 10.7563 8.45171 10.6991C8.46602 10.6418 8.45714 10.5822 8.42662 10.5314C8.36377 10.4267 8.22745 10.3927 8.12292 10.4554L6.66814 11.3282C6.60851 11.364 6.53151 11.3446 6.4958 11.2851C6.46009 11.2257 6.47943 11.1485 6.53882 11.1128L8.32428 10.0417C8.3751 10.0112 8.41097 9.9629 8.42528 9.90556C8.4396 9.84829 8.43071 9.78875 8.40027 9.73794C8.36983 9.6872 8.32145 9.65133 8.26411 9.63702C8.20645 9.6227 8.14715 9.63159 8.09649 9.66195L7.76597 9.86025C7.76589 9.86025 7.76589 9.86033 7.76581 9.86033H7.76573L6.31103 10.733C6.25141 10.7689 6.17432 10.7496 6.13869 10.69C6.10298 10.6306 6.12233 10.5534 6.18172 10.5177L7.6365 9.64497C7.68731 9.61445 7.72326 9.56607 7.73757 9.50889C7.75331 9.44612 7.74135 9.38193 7.70407 9.32813C7.63941 9.23461 7.50113 9.20975 7.39628 9.27275L5.172 10.6071C5.12331 10.6362 5.06094 10.6291 5.02011 10.5897C4.97921 10.5503 4.97001 10.4882 4.99754 10.4386L5.46005 9.60525C5.50646 9.52195 5.50465 9.41906 5.45517 9.33663L5.4552 9.33659Z" fill="#103E13"/>
<path d="M14.1547 12.6915C13.9229 13.0781 13.5416 13.3427 13.0811 13.4368C12.6246 13.5299 12.1446 13.444 11.7291 13.1949L9.50319 11.8596C9.39488 11.7947 9.31827 11.6915 9.28759 11.5689C9.25715 11.4466 9.27619 11.3195 9.34108 11.2113C9.38159 11.1437 9.43838 11.0903 9.50422 11.0509L9.50359 11.0505C9.39527 10.9856 9.31866 10.8824 9.28815 10.76C9.25747 10.6376 9.2765 10.5105 9.34148 10.4021C9.38332 10.3325 9.44066 10.278 9.50611 10.2394C9.41109 10.1741 9.34266 10.0791 9.3145 9.96647C9.28382 9.844 9.30286 9.71696 9.36783 9.60872C9.43272 9.50041 9.536 9.42388 9.6584 9.39328C9.69662 9.38369 9.7354 9.37897 9.77379 9.37897C9.84914 9.37904 9.92308 9.39816 9.99104 9.43371C9.99521 9.3457 10.0214 9.25925 10.0728 9.18507C10.2139 8.98159 10.4964 8.92527 10.7165 9.05733L12.5393 10.1507L12.3043 9.72749C12.2142 9.56593 12.2175 9.3666 12.313 9.20724C12.3596 9.12968 12.4262 9.06526 12.5057 9.02067C12.571 8.98448 12.6418 8.96734 12.7117 8.96734C12.8617 8.96741 13.0074 9.04654 13.0849 9.18664C13.3552 9.67362 13.8652 10.592 13.9011 10.6561C13.9087 10.6672 13.9317 10.7003 13.9515 10.7284C13.9703 10.755 13.9906 10.7805 14.0116 10.8058C14.4667 11.3575 14.5216 12.08 14.1547 12.6915L14.1547 12.6915ZM13.8178 10.9659C13.7928 10.9356 13.7682 10.9047 13.7459 10.8729C13.6779 10.7764 13.6762 10.7739 13.6711 10.7487C13.5916 10.6172 13.3978 10.2683 12.8651 9.30849C12.8184 9.22425 12.7122 9.1935 12.6276 9.24022C12.586 9.2635 12.5526 9.29599 12.5282 9.33665C12.4788 9.41901 12.4769 9.52189 12.5235 9.60544L12.9859 10.4385C13.0135 10.4882 13.0043 10.5502 12.9635 10.5897C12.9227 10.6293 12.8604 10.6362 12.8115 10.6071L10.5872 9.2727C10.4824 9.20985 10.3442 9.23448 10.2794 9.32808C10.2421 9.38188 10.2302 9.44607 10.2458 9.50876C10.2601 9.56602 10.296 9.61432 10.3469 9.64484C10.3471 9.64491 10.3472 9.64507 10.3473 9.64515L11.8016 10.5176C11.8611 10.5533 11.8804 10.6304 11.8447 10.69C11.809 10.7494 11.732 10.7688 11.6723 10.733L9.88687 9.66191C9.83621 9.63155 9.77659 9.62258 9.71933 9.63698C9.66191 9.65129 9.61361 9.68716 9.58317 9.73805C9.55265 9.78878 9.54384 9.84833 9.558 9.90559C9.57232 9.96286 9.60826 10.0112 9.65907 10.0417L10.0065 10.2501L11.4445 11.1129C11.5039 11.1486 11.5232 11.2256 11.4875 11.2852C11.4518 11.3446 11.3748 11.3639 11.3151 11.3282L9.86052 10.4555C9.75591 10.3926 9.61967 10.4267 9.55674 10.5315C9.52622 10.5823 9.51741 10.6418 9.53157 10.6991C9.54589 10.7564 9.58184 10.8047 9.63273 10.8353L9.98936 11.0492L11.0873 11.708C11.1468 11.7437 11.1661 11.8208 11.1304 11.8803C11.0947 11.9397 11.0177 11.9592 10.958 11.9233L9.86005 11.2646C9.80939 11.2342 9.75001 11.2252 9.69243 11.2396C9.63516 11.254 9.58671 11.2898 9.55627 11.3406C9.52583 11.3914 9.51694 11.451 9.5311 11.5082C9.54542 11.5654 9.58136 11.6137 9.63226 11.6443L11.8581 12.9796C12.2194 13.1963 12.6359 13.2714 13.0306 13.1908C13.4212 13.1111 13.7439 12.8879 13.9391 12.5624C14.2546 12.0368 14.2092 11.44 13.8179 10.9659L13.8178 10.9659Z" fill="#103E13"/>
</svg>
