<svg width="17" height="17" viewBox="0 0 17 17" fill="none" xmlns="http://www.w3.org/2000/svg">
<path d="M14.0914 14.4071V13.0717C14.0914 12.3633 13.81 11.6839 13.3091 11.183C12.8082 10.6821 12.1289 10.4007 11.4205 10.4007H10.7528C10.5757 10.4007 10.4058 10.3304 10.2806 10.2052C10.1554 10.0799 10.085 9.9101 10.085 9.733V6.39434C10.085 6.04015 9.94434 5.70047 9.6939 5.45002C9.44345 5.19957 9.10377 5.05887 8.74958 5.05887C8.39539 5.05887 8.05571 5.19957 7.80526 5.45002C7.55481 5.70047 7.41411 6.04015 7.41411 6.39434V12.4039L5.81155 10.2672C5.68716 10.1013 5.52586 9.96671 5.34042 9.87399C5.15498 9.78127 4.95051 9.733 4.74318 9.733H4.45338C3.8758 9.733 3.40771 10.2011 3.40771 10.7787C3.40771 10.9683 3.45913 11.1546 3.55662 11.3169L5.41091 14.4071M8.74958 3.05567V2.38794V3.05567ZM12.756 7.06207H13.4237H12.756ZM4.07545 7.06207H4.74318H4.07545ZM5.63995 3.95244L5.16786 3.48035L5.63995 3.95244ZM11.8592 3.95244L12.3313 3.48035L11.8592 3.95244Z" fill="#4CAF4F"/>
<path d="M14.0914 14.4071V13.0717C14.0914 12.3633 13.81 11.6839 13.3091 11.183C12.8082 10.6821 12.1289 10.4007 11.4205 10.4007H10.7528C10.5757 10.4007 10.4058 10.3304 10.2806 10.2052C10.1554 10.0799 10.085 9.9101 10.085 9.733V6.39434C10.085 6.04015 9.94434 5.70047 9.6939 5.45002C9.44345 5.19957 9.10377 5.05887 8.74958 5.05887V5.05887C8.39539 5.05887 8.05571 5.19957 7.80526 5.45002C7.55481 5.70047 7.41411 6.04015 7.41411 6.39434V12.4039L5.81155 10.2672C5.68716 10.1013 5.52586 9.96671 5.34042 9.87399C5.15498 9.78127 4.95051 9.733 4.74318 9.733H4.45338C3.8758 9.733 3.40771 10.2011 3.40771 10.7787C3.40771 10.9683 3.45913 11.1546 3.55662 11.3169L5.41091 14.4071M8.74958 3.05567V2.38794M12.756 7.06207H13.4237M4.07545 7.06207H4.74318M5.63995 3.95244L5.16786 3.48035M11.8592 3.95244L12.3313 3.48035" stroke="#4CAF4F" stroke-width="0.667733" stroke-linecap="round" stroke-linejoin="round"/>
</svg>
