<svg width="22" height="20" viewBox="0 0 22 20" fill="none" xmlns="http://www.w3.org/2000/svg">
<path d="M21.8406 13.1397C21.8406 16.4587 19.15 19.1493 15.831 19.1493L6.81658 19.1493C5.89464 19.1493 5.14725 18.4019 5.14725 17.48L5.14725 6.12849C5.14725 4.2846 6.64202 2.78983 8.48592 2.78983L20.1712 2.78983C21.0932 2.78983 21.8406 3.53722 21.8406 4.45916L21.8406 13.1397Z" fill="#E8F5E9"/>
<path d="M8.14861 3.79138C6.95629 3.79138 5.98564 4.77091 5.98564 5.96831C5.98564 6.72579 6.37461 7.39462 6.96198 7.78448C6.25256 8.02168 5.63871 8.46502 5.18848 9.045C4.93956 8.85353 4.66142 8.69955 4.36158 8.58921C4.81627 8.25166 5.11339 7.70942 5.11339 7.09999C5.11339 6.08445 4.29205 5.25311 3.28267 5.25311C2.27329 5.25311 1.45195 6.08445 1.45195 7.09999C1.45195 7.70977 1.74932 8.25226 2.20439 8.58981C0.999603 9.03439 0.13916 10.1984 0.13916 11.5682V12.5305C0.139283 12.6038 0.168626 12.6741 0.220653 12.7258C0.27268 12.7776 0.343079 12.8064 0.416435 12.8062H4.63817C4.6484 12.8073 4.65863 12.8079 4.66886 12.8078H11.6286C11.6388 12.8079 11.6492 12.8073 11.6593 12.8062H15.8813C16.0331 12.8055 16.156 12.6824 16.1564 12.5305V11.5682C16.1564 10.1984 15.2974 9.03439 14.0933 8.58969C14.5483 8.25226 14.8457 7.70964 14.8457 7.09987C14.8457 6.08433 14.0244 5.25299 13.015 5.25299C12.0057 5.25299 11.1843 6.08433 11.1843 7.09987C11.1843 7.7093 11.4815 8.25163 11.9362 8.58909C11.6358 8.69968 11.3575 8.85416 11.1082 9.0461C10.6582 8.46577 10.0452 8.02182 9.33582 7.78448C9.92303 7.39462 10.3122 6.72579 10.3122 5.96831C10.3122 4.77091 9.341 3.79138 8.14868 3.79138H8.14861ZM8.14861 4.34372C9.04036 4.34372 9.75925 5.06743 9.75925 5.96831C9.75925 6.86214 9.05157 7.57882 8.1697 7.59031C8.16267 7.59031 8.15576 7.58932 8.14861 7.58932C8.14146 7.58932 8.13468 7.59031 8.12753 7.59031C7.24566 7.57896 6.53845 6.86217 6.53845 5.96831C6.53845 5.06731 7.25674 4.34372 8.14849 4.34372H8.14861ZM3.2827 5.80541C3.99026 5.80541 4.56109 6.37969 4.56109 7.09996C4.56109 7.81541 3.99764 8.38722 3.29675 8.39498C3.29206 8.39498 3.2875 8.39449 3.28269 8.39449C3.27801 8.39449 3.27345 8.39498 3.26864 8.39498C2.56774 8.38721 2.0043 7.81528 2.0043 7.09996C2.0043 6.37972 2.57513 5.80541 3.28268 5.80541H3.2827ZM13.0148 5.80541C13.7224 5.80541 14.2932 6.37969 14.2932 7.09996C14.2932 7.81541 13.7298 8.38722 13.0289 8.39498C13.0242 8.39498 13.0196 8.39449 13.0148 8.39449C13.0101 8.39449 13.0056 8.39498 13.0008 8.39498C12.2999 8.38721 11.7364 7.81528 11.7364 7.09996C11.7364 6.37972 12.3073 5.80541 13.0148 5.80541H13.0148ZM8.12746 8.14261C8.13449 8.14273 8.1414 8.1436 8.14855 8.1436C8.15558 8.1436 8.16248 8.14261 8.16963 8.14261C9.93821 8.15395 11.3536 9.58152 11.3536 11.3686L11.3535 12.2553H4.94387V11.3686C4.94387 9.58136 6.35886 8.15397 8.12721 8.14261H8.12746ZM3.26156 8.94795C3.26858 8.94807 3.27549 8.94893 3.28264 8.94893C3.28979 8.94893 3.29657 8.94795 3.30372 8.94795C3.90191 8.95275 4.44784 9.15902 4.88254 9.5041C4.57149 10.0545 4.3916 10.6898 4.3916 11.3687V12.2533H0.691272V11.5682C0.691272 10.1158 1.83318 8.95928 3.26149 8.94782L3.26156 8.94795ZM12.9937 8.94795C13.0008 8.94807 13.0076 8.94893 13.0148 8.94893C13.0219 8.94893 13.0287 8.94795 13.0359 8.94795C14.4642 8.95929 15.6061 10.116 15.6061 11.5683V12.2533H11.9039L11.9037 11.3687C11.9037 10.6901 11.7243 10.0553 11.4139 9.50508C11.8487 9.15951 12.395 8.95274 12.9937 8.94795H12.9937Z" fill="#103E13"/>
</svg>
