<svg width="23" height="20" viewBox="0 0 23 20" fill="none" xmlns="http://www.w3.org/2000/svg">
<path d="M22.2346 13.1397C22.2346 16.4587 19.544 19.1493 16.225 19.1493L7.21063 19.1493C6.28868 19.1493 5.54129 18.4019 5.54129 17.48L5.54129 6.12849C5.54129 4.2846 7.03607 2.78983 8.87996 2.78983L20.5653 2.78983C21.4872 2.78983 22.2346 3.53722 22.2346 4.45916L22.2346 13.1397Z" fill="#E8F5E9"/>
<path d="M9.51967 6.79987C9.4155 6.79987 9.33081 6.71532 9.33081 6.61101V6.29006C9.33081 6.18588 9.41536 6.1012 9.51967 6.1012C9.62384 6.1012 9.70853 6.18575 9.70853 6.29006V6.61101C9.70853 6.71532 9.62385 6.79987 9.51967 6.79987Z" fill="#103E13"/>
<path d="M8.72572 6.79987C8.62155 6.79987 8.53687 6.71532 8.53687 6.61101V6.29006C8.53687 6.18588 8.62142 6.1012 8.72572 6.1012C8.8299 6.1012 8.91458 6.18575 8.91458 6.29006V6.61101C8.91445 6.71532 8.83003 6.79987 8.72572 6.79987Z" fill="#103E13"/>
<path d="M7.93178 6.79987C7.82761 6.79987 7.74292 6.71532 7.74292 6.61101V6.29006C7.74292 6.18588 7.82747 6.1012 7.93178 6.1012C8.03595 6.1012 8.12064 6.18575 8.12064 6.29006V6.61101C8.12064 6.71532 8.03609 6.79987 7.93178 6.79987Z" fill="#103E13"/>
<path d="M9.51967 8.11236C9.4155 8.11236 9.33081 8.02781 9.33081 7.9235V7.60268C9.33081 7.4985 9.41536 7.41382 9.51967 7.41382C9.62384 7.41382 9.70853 7.49837 9.70853 7.60268V7.9235C9.70853 8.02781 9.62385 8.11236 9.51967 8.11236Z" fill="#103E13"/>
<path d="M8.72572 8.11236C8.62155 8.11236 8.53687 8.02781 8.53687 7.9235V7.60268C8.53687 7.4985 8.62142 7.41382 8.72572 7.41382C8.8299 7.41382 8.91458 7.49837 8.91458 7.60268V7.9235C8.91445 8.02781 8.83003 8.11236 8.72572 8.11236Z" fill="#103E13"/>
<path d="M7.93178 8.11236C7.82761 8.11236 7.74292 8.02781 7.74292 7.9235V7.60268C7.74292 7.4985 7.82747 7.41382 7.93178 7.41382C8.03595 7.41382 8.12064 7.49837 8.12064 7.60268V7.9235C8.12064 8.02781 8.03609 8.11236 7.93178 8.11236Z" fill="#103E13"/>
<path d="M9.51967 9.42487C9.4155 9.42487 9.33081 9.34032 9.33081 9.23601V8.91506C9.33081 8.81088 9.41536 8.7262 9.51967 8.7262C9.62384 8.7262 9.70853 8.81075 9.70853 8.91506V9.23601C9.70853 9.34032 9.62385 9.42487 9.51967 9.42487Z" fill="#103E13"/>
<path d="M8.72572 9.42487C8.62155 9.42487 8.53687 9.34032 8.53687 9.23601V8.91506C8.53687 8.81088 8.62142 8.7262 8.72572 8.7262C8.8299 8.7262 8.91458 8.81075 8.91458 8.91506V9.23601C8.91445 9.34032 8.83003 9.42487 8.72572 9.42487Z" fill="#103E13"/>
<path d="M7.93178 9.42487C7.82761 9.42487 7.74292 9.34032 7.74292 9.23601V8.91506C7.74292 8.81088 7.82747 8.7262 7.93178 8.7262C8.03595 8.7262 8.12064 8.81075 8.12064 8.91506V9.23601C8.12064 9.34032 8.03609 9.42487 7.93178 9.42487Z" fill="#103E13"/>
<path d="M9.51967 10.7371C9.4155 10.7371 9.33081 10.6526 9.33081 10.5483V10.2273C9.33081 10.1231 9.41536 10.0385 9.51967 10.0385C9.62384 10.0385 9.70853 10.123 9.70853 10.2273V10.5483C9.70853 10.6526 9.62385 10.7371 9.51967 10.7371Z" fill="#103E13"/>
<path d="M8.72572 10.7371C8.62155 10.7371 8.53687 10.6526 8.53687 10.5483V10.2273C8.53687 10.1231 8.62142 10.0385 8.72572 10.0385C8.8299 10.0385 8.91458 10.123 8.91458 10.2273V10.5483C8.91445 10.6526 8.83003 10.7371 8.72572 10.7371Z" fill="#103E13"/>
<path d="M7.93178 10.7371C7.82761 10.7371 7.74292 10.6526 7.74292 10.5483V10.2273C7.74292 10.1231 7.82747 10.0385 7.93178 10.0385C8.03595 10.0385 8.12064 10.123 8.12064 10.2273V10.5483C8.12064 10.6526 8.03609 10.7371 7.93178 10.7371Z" fill="#103E13"/>
<path d="M9.51967 12.0496C9.4155 12.0496 9.33081 11.9651 9.33081 11.8608V11.5399C9.33081 11.4358 9.41536 11.3511 9.51967 11.3511C9.62384 11.3511 9.70853 11.4356 9.70853 11.5399V11.8608C9.70853 11.9649 9.62385 12.0496 9.51967 12.0496Z" fill="#103E13"/>
<path d="M8.72572 12.0496C8.62155 12.0496 8.53687 11.9651 8.53687 11.8608V11.5399C8.53687 11.4358 8.62142 11.3511 8.72572 11.3511C8.8299 11.3511 8.91458 11.4356 8.91458 11.5399V11.8608C8.91445 11.9649 8.83003 12.0496 8.72572 12.0496Z" fill="#103E13"/>
<path d="M7.93178 12.0496C7.82761 12.0496 7.74292 11.9651 7.74292 11.8608L7.74305 11.5399C7.74305 11.4358 7.8276 11.3511 7.93191 11.3511C8.03609 11.3511 8.12077 11.4356 8.12077 11.5399V11.8608C8.12064 11.9649 8.03609 12.0496 7.93178 12.0496V12.0496Z" fill="#103E13"/>
<path d="M2.53654 13.3557C2.53654 13.4599 2.62109 13.5446 2.7254 13.5446H14.2263C14.3305 13.5446 14.4152 13.46 14.4152 13.3557C14.4152 13.2515 14.3307 13.1668 14.2263 13.1668H13.8772V7.74442C13.8772 7.64025 13.7927 7.55556 13.6884 7.55556L10.6049 7.55569V3.64641C10.6049 3.5803 10.5704 3.51919 10.514 3.48494C10.4578 3.45057 10.3874 3.44846 10.329 3.47888L6.82324 5.30413C6.76068 5.33666 6.7217 5.40119 6.7217 5.47165V8.88633H3.32894C3.22476 8.88633 3.14008 8.97089 3.14008 9.07519V13.1669H2.72497C2.6208 13.1667 2.53638 13.2513 2.53638 13.3556L2.53654 13.3557ZM10.6049 10.416H13.4997V13.167L10.6049 13.1669V10.416ZM10.6049 9.10364H13.4997V10.0385L10.6049 10.0383V9.10364ZM10.6049 7.93321H13.4997V8.7262H10.6049V7.93321ZM7.09922 5.58633L10.2271 3.95771V13.1667H7.09922V5.58633ZM4.45139 11.6584C4.45139 11.2665 4.76194 10.9475 5.14374 10.9475C5.52553 10.9475 5.83622 11.2664 5.83622 11.6584V13.1669H4.45139V11.6584ZM3.51778 9.26399H6.72165V13.1669H6.21393V11.6584C6.21393 11.0582 5.73402 10.5699 5.14374 10.5699C4.55372 10.5699 4.07382 11.0581 4.07382 11.6584V13.1669H3.51778V9.26399Z" fill="#103E13"/>
</svg>
