<svg width="17" height="17" viewBox="0 0 17 17" fill="none" xmlns="http://www.w3.org/2000/svg">
<path d="M2.7248 5.89359V6.06053H2.89174H14.9109H15.0779V5.89359V5.14239C15.0779 4.76607 14.9284 4.40516 14.6623 4.13906C14.3962 3.87295 14.0353 3.72346 13.6589 3.72346H4.14374C3.76741 3.72346 3.4065 3.87295 3.1404 4.13906C2.8743 4.40516 2.7248 4.76607 2.7248 5.14239V5.89359ZM15.0779 6.89519V6.72826H14.9109H2.89174H2.7248V6.89519V11.6528C2.7248 12.0291 2.8743 12.39 3.1404 12.6561C3.4065 12.9222 3.76741 13.0717 4.14374 13.0717H13.6589C14.0353 13.0717 14.3962 12.9222 14.6623 12.6561C14.9284 12.39 15.0779 12.0291 15.0779 11.6528V6.89519ZM2.05707 5.14239C2.05707 4.58898 2.27691 4.05822 2.66824 3.6669C3.05957 3.27557 3.59032 3.05573 4.14374 3.05573H13.6589C14.2124 3.05573 14.7431 3.27557 15.1344 3.6669C15.5258 4.05822 15.7456 4.58898 15.7456 5.14239V11.6528C15.7456 12.2062 15.5258 12.737 15.1344 13.1283C14.7431 13.5196 14.2124 13.7395 13.6589 13.7395H4.14374C3.59032 13.7395 3.05957 13.5196 2.66824 13.1283C2.27691 12.737 2.05707 12.2062 2.05707 11.6528V5.14239ZM11.4053 10.0669H12.9077C12.9963 10.0669 13.0812 10.1021 13.1438 10.1647C13.2064 10.2273 13.2416 10.3122 13.2416 10.4008C13.2416 10.4893 13.2064 10.5743 13.1438 10.6369C13.0812 10.6995 12.9963 10.7347 12.9077 10.7347H11.4053C11.3168 10.7347 11.2319 10.6995 11.1693 10.6369C11.1066 10.5743 11.0715 10.4893 11.0715 10.4008C11.0715 10.3122 11.1066 10.2273 11.1693 10.1647C11.2319 10.1021 11.3168 10.0669 11.4053 10.0669Z" fill="#4CAF4F" stroke="#4CAF4F" stroke-width="0.333867"/>
</svg>
