<svg width="148" height="145" viewBox="0 0 148 145" fill="none" xmlns="http://www.w3.org/2000/svg">
<path d="M125.657 144.608C125.657 144.656 101.696 144.697 72.1487 144.697C42.6012 144.697 18.6299 144.656 18.6299 144.608C18.6299 144.559 42.5874 144.518 72.1487 144.518C101.71 144.518 125.657 144.563 125.657 144.608Z" fill="#263238"/>
<path d="M102.31 102.366C96.9791 98.6423 95.7714 91.7308 95.9819 85.5162C96.0164 84.4811 95.9025 83.3838 96.396 82.4763C96.8894 81.5687 98.0419 80.9442 98.9701 81.379C99.7396 81.7413 100.074 82.6384 100.506 83.3803C101.081 84.3684 101.925 85.1735 102.938 85.7026C103.597 86.0476 104.415 86.2547 105.067 85.8958C105.964 85.4024 106.068 84.1705 106.061 83.1353C106.061 81.2099 106.05 79.2868 106.027 77.3659C105.965 76.3345 106.069 75.2998 106.337 74.3018C106.658 73.3218 107.372 72.4143 108.349 72.1383C109.325 71.8622 110.543 72.4316 110.764 73.4391C110.802 73.8659 110.813 74.2947 110.795 74.7228C110.823 75.1541 111.023 75.6268 111.427 75.7579C111.831 75.8891 112.251 75.5889 112.562 75.2852C113.625 74.25 114.349 72.9008 115.022 71.5689C115.695 70.237 116.354 68.8671 117.32 67.7318C118.287 66.5966 119.622 65.696 121.116 65.6097C122.61 65.5235 124.166 66.4413 124.539 67.8906C124.912 69.3398 124.066 70.8201 123.159 71.9968C121.789 73.7434 120.175 75.2832 118.366 76.5688C118.013 76.7617 117.731 77.0629 117.562 77.428C117.338 78.1181 117.99 78.8083 118.67 79.0257C119.439 79.281 120.274 79.2016 121.085 79.2982C121.896 79.3949 122.759 79.7468 123.066 80.506C123.487 81.5618 122.603 82.666 121.737 83.3907C119.998 84.8399 118.023 85.9802 115.899 86.7619C115.14 87.0379 114.343 87.2829 113.728 87.8143C113.114 88.3457 112.748 89.2739 113.118 90.002C113.487 90.7301 114.436 90.9613 115.233 90.8129C116.03 90.6645 116.737 90.2367 117.496 89.9503C118.915 89.4154 120.743 89.512 121.637 90.737C121.914 91.159 122.089 91.6394 122.149 92.1405C122.209 92.6416 122.152 93.1498 121.982 93.6251C121.637 94.5711 121.105 95.4382 120.419 96.1751C118.159 98.8753 115.223 100.927 111.91 102.121C108.621 103.259 105.575 103.57 102.307 102.372" fill="#4CAF4F"/>
<path d="M123.021 66.462C123.021 66.462 122.99 66.4965 122.921 66.5587L122.614 66.8312C122.345 67.0728 121.948 67.4248 121.447 67.8906C120.029 69.2077 118.712 70.63 117.507 72.1452C116.737 73.101 115.94 74.1845 115.091 75.3611C114.243 76.5378 113.366 77.8076 112.497 79.1568C111.569 80.5795 110.72 82.0517 109.953 83.5667C109.553 84.3568 109.201 85.1815 108.839 86.0235L107.769 88.5942C106.359 91.8322 105.131 95.1465 104.091 98.5216C103.253 101.283 102.675 104.117 102.366 106.986C102.165 108.922 102.133 110.872 102.269 112.814C102.324 113.504 102.376 114.032 102.424 114.391C102.445 114.563 102.459 114.701 102.473 114.801V114.943C102.458 114.898 102.447 114.852 102.441 114.805C102.424 114.705 102.403 114.57 102.376 114.398C102.314 114.053 102.248 113.508 102.186 112.817C102.02 110.872 102.031 108.915 102.221 106.972C102.511 104.091 103.076 101.244 103.908 98.4698C104.94 95.0853 106.164 91.7627 107.576 88.5183L108.673 85.9579C109.036 85.1194 109.391 84.2878 109.795 83.4942C110.567 81.9746 111.423 80.499 112.358 79.074C113.242 77.6937 114.132 76.4446 114.971 75.2783C115.809 74.112 116.62 73.0216 117.386 72.0693C118.603 70.558 119.938 69.1458 121.378 67.8457C121.889 67.3868 122.296 67.0417 122.572 66.8105L122.893 66.5517C122.932 66.5175 122.975 66.4874 123.021 66.462Z" fill="#263238"/>
<path d="M109.839 83.4873C109.791 83.3452 109.757 83.1983 109.739 83.0491C109.684 82.7627 109.622 82.359 109.55 81.8345C109.401 80.7993 109.249 79.3811 109.087 77.8111C108.925 76.2411 108.742 74.8194 108.59 73.7946C108.511 73.2839 108.442 72.8733 108.394 72.5869C108.356 72.4403 108.336 72.2897 108.335 72.1383C108.394 72.2765 108.437 72.4213 108.463 72.5696C108.539 72.8526 108.625 73.2598 108.721 73.7739C108.918 74.8091 109.111 76.2169 109.274 77.7904C109.436 79.3639 109.574 80.7441 109.681 81.8172C109.732 82.3003 109.777 82.7109 109.812 83.0388C109.839 83.1867 109.848 83.3372 109.839 83.4873Z" fill="#263238"/>
<path d="M123.117 81.0098C122.949 81.0464 122.778 81.0672 122.607 81.0719C122.262 81.103 121.772 81.1444 121.164 81.2134C119.95 81.3445 118.28 81.5861 116.447 81.9311C114.615 82.2762 112.969 82.6661 111.786 82.9663C111.195 83.1181 110.719 83.2562 110.405 83.3493C110.238 83.4089 110.064 83.4505 109.888 83.4735C110.047 83.3934 110.213 83.3275 110.385 83.2769C110.709 83.163 111.178 83.0043 111.765 82.8352C112.941 82.4901 114.587 82.0795 116.427 81.7275C117.985 81.4296 119.557 81.2108 121.137 81.0719C121.747 81.0202 122.241 80.9995 122.586 80.9926C122.763 80.9805 122.941 80.9863 123.117 81.0098Z" fill="#263238"/>
<path d="M104.077 98.2282C104.04 98.1783 104.01 98.1237 103.987 98.066L103.759 97.5864C103.563 97.1689 103.297 96.5512 102.98 95.7955C102.338 94.2773 101.52 92.1517 100.65 89.7915C99.7808 87.4313 98.9803 85.3057 98.373 83.7702C98.0762 83.0249 97.8312 82.4141 97.6483 81.9586L97.4551 81.4652C97.4283 81.4083 97.4097 81.3479 97.3999 81.2858C97.4367 81.3357 97.4668 81.3902 97.4896 81.4479L97.7174 81.9276C97.9106 82.3451 98.1797 82.9628 98.4972 83.7184C99.139 85.2367 99.9568 87.3623 100.826 89.7225C101.696 92.0827 102.496 94.2083 103.104 95.7438C103.4 96.4891 103.645 97.0999 103.825 97.5553C103.904 97.752 103.97 97.9004 104.022 98.0488C104.048 98.1057 104.067 98.1661 104.077 98.2282Z" fill="#263238"/>
<path d="M121.703 92.5452C121.648 92.5769 121.588 92.6012 121.527 92.6176L121.016 92.7902L119.129 93.4009C117.535 93.9185 115.333 94.6569 112.918 95.4713C110.502 96.2856 108.29 97.0102 106.686 97.4933C105.885 97.7383 105.233 97.9247 104.781 98.0489L104.26 98.1834C104.199 98.2027 104.137 98.2154 104.074 98.2214C104.129 98.1897 104.188 98.1653 104.25 98.1489L104.76 97.9764L106.648 97.3657C108.242 96.8481 110.444 96.1096 112.859 95.2953C115.274 94.481 117.483 93.7563 119.087 93.2732C119.891 93.0282 120.54 92.8419 120.995 92.7177L121.517 92.5831C121.577 92.5639 121.64 92.5512 121.703 92.5452Z" fill="#263238"/>
<path d="M114.512 8.84384L112.735 9.47875L111.972 7.1565C110.571 2.87431 106.106 0.600362 102.003 2.04616C97.9005 3.49196 95.7163 8.18823 97.1172 12.4704L97.8798 14.7927L96.0959 15.431C95.4156 15.6949 94.8632 16.2107 94.5534 16.8714C94.2437 17.532 94.2004 18.2866 94.4327 18.9783L99.3774 34.0884C99.48 34.4308 99.6504 34.7491 99.8785 35.0244C100.107 35.2996 100.388 35.5262 100.705 35.6907C101.022 35.8552 101.37 35.9542 101.726 35.9818C102.082 36.0095 102.441 35.9652 102.78 35.8517L121.196 29.2645C121.885 29.0011 122.445 28.4807 122.758 27.8127C123.072 27.1447 123.114 26.3812 122.876 25.6828L117.928 10.5726C117.822 10.2311 117.649 9.9144 117.419 9.64127C117.189 9.36815 116.906 9.14423 116.587 8.98289C116.268 8.82154 115.92 8.72608 115.563 8.70219C115.207 8.6783 114.849 8.72648 114.512 8.84384ZM100.475 11.2593C100.097 10.1458 100.165 8.92941 100.664 7.86486C101.163 6.80031 102.055 5.97023 103.152 5.54852C103.694 5.3631 104.268 5.28874 104.839 5.32989C105.411 5.37103 105.968 5.52684 106.478 5.78802C106.987 6.04919 107.439 6.41038 107.807 6.85003C108.174 7.28968 108.449 7.79878 108.615 8.34696L109.374 10.6692L101.234 13.5815L100.475 11.2593ZM110.826 24.6683L112.089 28.5261C112.113 28.6034 112.105 28.6867 112.068 28.7587C112.032 28.8307 111.969 28.8858 111.893 28.9125L110.123 29.544C110.052 29.5635 109.977 29.555 109.912 29.5203C109.848 29.4856 109.8 29.4273 109.777 29.3577L108.504 25.5171C107.802 25.4789 107.128 25.2271 106.573 24.7954C106.018 24.3637 105.609 23.7728 105.399 23.1017C105.099 22.2145 105.153 21.2457 105.551 20.398C105.95 19.5502 106.66 18.8894 107.535 18.5538C107.966 18.4063 108.423 18.3472 108.878 18.3801C109.333 18.413 109.777 18.5371 110.183 18.7451C110.589 18.9531 110.949 19.2408 111.242 19.5909C111.534 19.941 111.753 20.3464 111.886 20.7829C112.108 21.4646 112.126 22.1962 111.939 22.8882C111.751 23.5801 111.366 24.2024 110.83 24.6786L110.826 24.6683Z" fill="#4CAF4F"/>
<path d="M112.655 9.43738C112.655 9.48569 109.36 10.7245 105.261 12.1979C101.161 13.6713 97.8176 14.8548 97.8004 14.8203C97.7831 14.7858 101.096 13.5367 105.198 12.0598C109.301 10.583 112.638 9.39253 112.655 9.43738Z" fill="#263238"/>
<path d="M116.568 10.0723C116.583 10.1022 116.596 10.1334 116.606 10.1654C116.634 10.2344 116.665 10.3242 116.706 10.4346C116.796 10.6865 116.92 11.035 117.075 11.4698L118.4 15.3275C118.953 16.9631 119.612 18.9023 120.343 21.0555C120.688 22.1356 121.095 23.2605 121.475 24.444C121.678 25.0539 121.766 25.6963 121.734 26.3384C121.704 26.6723 121.609 26.9971 121.454 27.2942C121.288 27.5903 121.067 27.8516 120.802 28.0637C120.269 28.4528 119.677 28.7545 119.049 28.9574L117.272 29.5958L113.908 30.8L108.211 32.829L104.363 34.1816L103.328 34.5267L103.052 34.6164C103.023 34.6295 102.991 34.6377 102.959 34.6405C102.959 34.6405 102.987 34.6405 103.045 34.5991L103.314 34.4922L104.35 34.1022L108.176 32.6944L113.863 30.624L117.22 29.4094L118.997 28.7676C119.608 28.573 120.182 28.2805 120.699 27.9015C120.945 27.7047 121.151 27.4622 121.306 27.1872C121.452 26.9125 121.54 26.6106 121.565 26.3004C121.596 25.6818 121.512 25.0627 121.316 24.4751C120.944 23.3019 120.55 22.1666 120.195 21.0866C119.477 18.93 118.814 16.9838 118.29 15.3482C117.766 13.7126 117.324 12.398 117.02 11.4732C116.875 11.0212 116.765 10.6692 116.675 10.4139L116.592 10.1378C116.582 10.1169 116.574 10.0949 116.568 10.0723Z" fill="#263238"/>
<path d="M106.851 5.31394C106.851 5.31394 106.669 5.22422 106.33 5.0862C105.848 4.901 105.339 4.79834 104.822 4.78255C104.057 4.75632 103.296 4.90009 102.593 5.20352C101.739 5.58135 101.008 6.19249 100.485 6.96678C99.9586 7.73886 99.6761 8.65127 99.6742 9.58578C99.6814 10.3517 99.7976 11.1127 100.019 11.8459C100.199 12.4739 100.385 12.9743 100.509 13.3228C100.583 13.4998 100.643 13.682 100.689 13.868C100.591 13.7025 100.509 13.528 100.444 13.3469C100.302 13.0019 100.099 12.5119 99.8985 11.8804C99.6528 11.1395 99.5191 10.3661 99.5017 9.58578C99.4925 8.61596 99.7816 7.66675 100.33 6.86671C100.871 6.06414 101.632 5.4341 102.521 5.05169C103.246 4.7466 104.031 4.61202 104.816 4.65833C105.343 4.6852 105.861 4.80798 106.344 5.02064C106.473 5.08025 106.598 5.14946 106.717 5.22768C106.766 5.24924 106.811 5.27835 106.851 5.31394Z" fill="#263238"/>
<path d="M107.01 18.816C107.065 18.7827 107.123 18.7538 107.183 18.7298C107.355 18.6518 107.534 18.5883 107.718 18.54C108.008 18.4541 108.308 18.4032 108.611 18.3882C109.023 18.366 109.435 18.4282 109.822 18.571C110.706 18.8816 111.517 19.7822 111.917 20.9865C112.109 21.6327 112.109 22.3208 111.917 22.9671C111.704 23.6685 111.323 24.3071 110.806 24.827L110.827 24.7338C111.286 25.9933 111.786 27.3597 112.303 28.7848L112.335 28.8711L112.248 28.9021L111.458 29.1644L109.733 29.7406L109.646 29.7682L109.619 29.682C109.146 28.2534 108.629 26.9215 108.239 25.6137L108.315 25.6724C107.64 25.6163 106.997 25.3631 106.465 24.9443C105.984 24.5738 105.589 24.1027 105.309 23.5641C105.056 23.0864 104.93 22.5517 104.943 22.0113C104.959 21.459 105.097 20.9171 105.347 20.4243C105.597 19.9316 105.953 19.5002 106.389 19.1611C106.569 19.0153 106.77 18.8989 106.986 18.816C106.791 18.9317 106.602 19.0572 106.42 19.1921C105.941 19.5975 105.574 20.1191 105.354 20.707C105.165 21.1502 105.077 21.6298 105.095 22.1113C105.114 22.5927 105.239 23.0641 105.461 23.4916C105.737 24.0098 106.122 24.4619 106.589 24.8166C107.097 25.2147 107.71 25.4548 108.353 25.5067H108.411L108.428 25.5585C108.808 26.8421 109.329 28.1844 109.809 29.6199L109.695 29.5646L111.42 28.9884L112.207 28.7227L112.152 28.84C111.637 27.4149 111.141 26.045 110.685 24.7856V24.7338L110.727 24.6924C111.228 24.1941 111.602 23.5821 111.817 22.9084C112 22.2902 112 21.6323 111.817 21.0141C111.441 19.8547 110.664 18.9748 109.822 18.6642C109.45 18.5205 109.052 18.4536 108.653 18.4675C108.355 18.4743 108.058 18.5149 107.769 18.5883C107.255 18.716 107.014 18.8333 107.01 18.816Z" fill="#263238"/>
<path d="M96.3444 118.449L61.8764 118.29C59.8859 118.279 57.9811 117.479 56.5804 116.064C55.1797 114.65 54.3976 112.738 54.4058 110.747L54.7716 24.3405C54.7757 23.3544 54.974 22.3787 55.3554 21.4692C55.7368 20.5598 56.2936 19.7344 56.9941 19.0403C57.6947 18.3462 58.5251 17.7969 59.438 17.4239C60.351 17.051 61.3284 16.8616 62.3146 16.8666L96.7792 17.0253C98.7697 17.0353 100.675 17.835 102.076 19.2486C103.478 20.6623 104.261 22.5743 104.253 24.5648L103.887 110.968C103.883 111.954 103.685 112.93 103.304 113.84C102.922 114.75 102.366 115.576 101.665 116.271C100.965 116.965 100.134 117.515 99.2215 117.889C98.3085 118.263 97.3309 118.453 96.3444 118.449Z" fill="#455A64"/>
<path d="M96.7272 19.9962H90.0468C89.8289 20.0002 89.6138 20.0472 89.414 20.1343C89.2142 20.2215 89.0335 20.3472 88.8822 20.5042C88.731 20.6612 88.6122 20.8465 88.5325 21.0494C88.4529 21.2524 88.414 21.469 88.4182 21.687V22.8982C88.4223 23.116 88.3834 23.3324 88.3037 23.5352C88.224 23.7379 88.1052 23.923 87.9539 24.0797C87.8026 24.2364 87.6219 24.3618 87.422 24.4486C87.2222 24.5354 87.0073 24.5819 86.7895 24.5855L73.7669 24.5268C73.3264 24.5151 72.9085 24.329 72.6051 24.0094C72.3016 23.6898 72.1375 23.2628 72.1486 22.8222V21.6111C72.1597 21.1711 71.996 20.7446 71.6933 20.4251C71.3906 20.1056 70.9736 19.9191 70.5337 19.9065H68.1838L62.3351 19.8789C60.9439 19.8706 59.6062 20.4139 58.6148 21.3898C57.6233 22.3657 57.059 23.6947 57.0453 25.0858L56.7003 109.425C56.6971 110.116 56.8299 110.8 57.091 111.438C57.3522 112.077 57.7366 112.658 58.2224 113.149C58.7081 113.639 59.2857 114.029 59.9221 114.296C60.5585 114.563 61.2412 114.702 61.9314 114.705L96.3269 114.864C97.0175 114.867 97.702 114.734 98.3412 114.472C98.9804 114.211 99.5619 113.826 100.052 113.34C100.543 112.854 100.933 112.276 101.2 111.64C101.467 111.003 101.607 110.32 101.61 109.629L101.955 25.2894C101.963 23.8944 101.417 22.5532 100.437 21.5606C99.4565 20.568 98.1222 20.0053 96.7272 19.9962Z" fill="white"/>
<path d="M92.0999 103.611L66.5241 103.501C66.2584 103.501 66.0444 103.211 66.0479 102.859L66.0755 96.1682C66.0755 95.8231 66.2929 95.5264 66.5586 95.5264L92.1344 95.6437C92.2817 95.6691 92.4134 95.7505 92.5021 95.8707C92.5908 95.9909 92.6297 96.1408 92.6106 96.2889L92.5865 102.973C92.5865 103.328 92.3656 103.615 92.0999 103.611Z" fill="#4CAF4F"/>
<path d="M74.3002 99.5306C74.1591 99.5306 74.0233 99.5079 73.893 99.4627C73.7645 99.4156 73.665 99.3559 73.5944 99.2835L73.6731 99.1288C73.7401 99.1939 73.8297 99.2491 73.9419 99.2944C74.0559 99.3378 74.1754 99.3595 74.3002 99.3595C74.4197 99.3595 74.5165 99.3451 74.5907 99.3161C74.6667 99.2853 74.7219 99.2446 74.7563 99.1939C74.7925 99.1433 74.8106 99.0872 74.8106 99.0256C74.8106 98.9514 74.7889 98.8917 74.7455 98.8465C74.7038 98.8012 74.6486 98.7659 74.5799 98.7406C74.5111 98.7134 74.4351 98.6899 74.3518 98.67C74.2686 98.6501 74.1853 98.6293 74.1021 98.6076C74.0188 98.584 73.9419 98.5533 73.8713 98.5152C73.8025 98.4772 73.7464 98.4275 73.703 98.3659C73.6614 98.3026 73.6405 98.2202 73.6405 98.1189C73.6405 98.0248 73.665 97.9388 73.7138 97.861C73.7645 97.7814 73.8414 97.718 73.9446 97.671C74.0478 97.6221 74.1799 97.5977 74.341 97.5977C74.4477 97.5977 74.5536 97.613 74.6586 97.6438C74.7635 97.6728 74.854 97.7135 74.9301 97.766L74.8622 97.9261C74.7807 97.8718 74.6939 97.832 74.6016 97.8067C74.5111 97.7814 74.4233 97.7687 74.3382 97.7687C74.2242 97.7687 74.1301 97.7841 74.0559 97.8148C73.9817 97.8456 73.9265 97.8872 73.8903 97.9397C73.8559 97.9904 73.8387 98.0483 73.8387 98.1135C73.8387 98.1877 73.8595 98.2474 73.9012 98.2926C73.9446 98.3379 74.0007 98.3732 74.0695 98.3985C74.1401 98.4239 74.217 98.4465 74.3002 98.4664C74.3835 98.4863 74.4658 98.508 74.5473 98.5315C74.6305 98.5551 74.7065 98.5858 74.7753 98.6238C74.8459 98.66 74.902 98.7089 74.9436 98.7704C74.9871 98.832 75.0088 98.9125 75.0088 99.0121C75.0088 99.1044 74.9834 99.1903 74.9328 99.27C74.8821 99.3478 74.8043 99.4111 74.6993 99.46C74.5961 99.507 74.4631 99.5306 74.3002 99.5306ZM75.4465 99.5143V97.6139H75.6474V99.5143H75.4465ZM76.2657 99.5143V97.6139H76.4313L77.7425 99.2645H77.6557V97.6139H77.8538V99.5143H77.6882L76.3797 97.8637H76.4666V99.5143H76.2657ZM79.3075 99.5306C79.1627 99.5306 79.0288 99.507 78.9057 99.46C78.7845 99.4111 78.6786 99.3433 78.5881 99.2564C78.4994 99.1695 78.4298 99.0673 78.3791 98.9496C78.3302 98.832 78.3058 98.7035 78.3058 98.5641C78.3058 98.4248 78.3302 98.2963 78.3791 98.1786C78.4298 98.061 78.5003 97.9587 78.5908 97.8718C78.6813 97.785 78.7872 97.718 78.9085 97.671C79.0315 97.6221 79.1655 97.5977 79.3102 97.5977C79.455 97.5977 79.5871 97.6203 79.7066 97.6655C79.8279 97.7108 79.931 97.7795 80.0161 97.8718L79.8912 97.9994C79.8116 97.9198 79.7238 97.8628 79.6279 97.8284C79.5319 97.794 79.4288 97.7768 79.3184 97.7768C79.2007 97.7768 79.0922 97.7967 78.9926 97.8366C78.8949 97.8746 78.8089 97.9298 78.7347 98.0022C78.6623 98.0727 78.6053 98.156 78.5637 98.2519C78.5239 98.346 78.504 98.4501 78.504 98.5641C78.504 98.6763 78.5239 98.7804 78.5637 98.8763C78.6053 98.9722 78.6623 99.0564 78.7347 99.1288C78.8089 99.1994 78.8949 99.2546 78.9926 99.2944C79.0922 99.3324 79.1998 99.3514 79.3157 99.3514C79.4243 99.3514 79.5265 99.3351 79.6224 99.3025C79.7202 99.27 79.8098 99.2148 79.8912 99.1369L80.0052 99.289C79.9147 99.3686 79.8089 99.4292 79.6876 99.4708C79.5663 99.5107 79.4396 99.5306 79.3075 99.5306ZM79.8125 99.2645V98.5641H80.0052V99.289L79.8125 99.2645ZM82.0499 99.5306C81.8073 99.5306 81.6164 99.4609 81.477 99.3215C81.3377 99.1822 81.268 98.9759 81.268 98.7026V97.6139H81.4689V98.6944C81.4689 98.9188 81.5196 99.0844 81.6209 99.1912C81.7223 99.298 81.8653 99.3514 82.0499 99.3514C82.2363 99.3514 82.3802 99.298 82.4815 99.1912C82.5829 99.0844 82.6335 98.9188 82.6335 98.6944V97.6139H82.829V98.7026C82.829 98.9759 82.7593 99.1822 82.62 99.3215C82.4824 99.4609 82.2924 99.5306 82.0499 99.5306ZM83.4344 99.5143V97.6139H84.1456C84.3067 97.6139 84.4452 97.6402 84.561 97.6927C84.6768 97.7434 84.7655 97.8176 84.827 97.9153C84.8904 98.0112 84.9221 98.1279 84.9221 98.2655C84.9221 98.3994 84.8904 98.5152 84.827 98.613C84.7655 98.7089 84.6768 98.7831 84.561 98.8356C84.4452 98.8881 84.3067 98.9143 84.1456 98.9143H83.5457L83.6353 98.8193V99.5143H83.4344ZM83.6353 98.8356L83.5457 98.7379H84.1402C84.3302 98.7379 84.4741 98.6971 84.5719 98.6157C84.6714 98.5324 84.7212 98.4157 84.7212 98.2655C84.7212 98.1135 84.6714 97.9958 84.5719 97.9126C84.4741 97.8293 84.3302 97.7877 84.1402 97.7877H83.5457L83.6353 97.6927V98.8356Z" fill="#E8E8E3"/>
<path d="M71.6258 44.7888L62.751 44.7485L62.7436 46.3772L71.6184 46.4175L71.6258 44.7888Z" fill="#4CAF4F"/>
<path opacity="0.1" d="M71.6258 44.7888L62.751 44.7485L62.7436 46.3772L71.6184 46.4175L71.6258 44.7888Z" fill="black"/>
<path d="M97.6416 54.7886C97.7113 54.7816 97.7798 54.7653 97.8452 54.7403C97.9407 54.703 98.0238 54.6395 98.0848 54.5571C98.1458 54.4747 98.1824 54.3767 98.1903 54.2745C98.1903 53.7258 98.1903 52.9253 98.1903 51.897C98.1903 51.3829 98.1903 50.8066 98.1903 50.1717C98.1903 50.0164 98.1903 49.8543 98.1903 49.6921C98.2128 49.5347 98.1785 49.3745 98.0937 49.2401C98.0462 49.1756 97.9844 49.123 97.9131 49.0865C97.8419 49.05 97.7631 49.0305 97.683 49.0296H97.1447H92.1586L63.2978 48.9226C63.2239 48.9213 63.1509 48.9379 63.0848 48.971C63.0187 49.004 62.9616 49.0525 62.9183 49.1124C62.8349 49.2474 62.8031 49.4079 62.8285 49.5644C62.8285 49.9095 62.8285 50.2545 62.8285 50.5996C62.8285 51.2897 62.8285 51.9798 62.8285 52.67C62.8285 53.015 62.8285 53.3601 62.8285 53.7051C62.8142 53.8658 62.8142 54.0275 62.8285 54.1882C62.8467 54.2571 62.8804 54.3209 62.927 54.3748C62.9737 54.4286 63.0321 54.471 63.0977 54.4988C63.1657 54.5258 63.2385 54.5388 63.3116 54.5367H65.068L72.7318 54.5781L85.706 54.6575L94.4533 54.7265L96.8307 54.7541H97.4484C97.5899 54.7541 97.6589 54.7541 97.6589 54.7541H97.4484H96.8307H94.4533H85.706L72.7318 54.7127L65.068 54.6817H63.3116C63.215 54.6856 63.1186 54.6691 63.0287 54.6333C62.9378 54.5946 62.857 54.5356 62.7924 54.4608C62.7278 54.3861 62.6812 54.2975 62.656 54.202C62.636 54.1115 62.6291 54.0185 62.6353 53.926V53.6706C62.6353 53.3256 62.6353 52.9805 62.6353 52.6354C62.6353 51.9453 62.6353 51.2552 62.6353 50.5651C62.6353 50.22 62.6353 49.875 62.6353 49.5299C62.6287 49.438 62.6287 49.3458 62.6353 49.2539C62.6482 49.1524 62.6875 49.056 62.7492 48.9744C62.8087 48.8911 62.8875 48.8234 62.9788 48.7771C63.0701 48.7309 63.1713 48.7074 63.2737 48.7087L92.1345 48.8674L97.1206 48.9019H97.6589C97.7537 48.902 97.8471 48.9249 97.9312 48.9688C98.0153 49.0126 98.0876 49.0761 98.142 49.1538C98.2393 49.3038 98.2785 49.4841 98.2524 49.661C98.2524 49.8232 98.2524 49.9854 98.2524 50.1407C98.2524 50.7687 98.2524 51.3449 98.2524 51.866C98.2524 52.9011 98.2282 53.6948 98.2213 54.2469C98.2129 54.353 98.1743 54.4546 98.1101 54.5395C98.0459 54.6245 97.9588 54.6894 97.859 54.7265C97.7937 54.767 97.7185 54.7885 97.6416 54.7886Z" fill="#E0E0E0"/>
<path d="M81.6481 50.6548H65.4165V52.1765H81.6481V50.6548Z" fill="#4CAF4F"/>
<path opacity="0.2" d="M81.6481 50.6548H65.4165V52.1765H81.6481V50.6548Z" fill="white"/>
<path d="M71.5653 59.6467L62.6904 59.6064L62.683 61.2351L71.5579 61.2754L71.5653 59.6467Z" fill="#4CAF4F"/>
<path opacity="0.1" d="M71.5653 59.6467L62.6904 59.6064L62.683 61.2351L71.5579 61.2754L71.5653 59.6467Z" fill="black"/>
<path d="M97.4176 69.6469C97.4873 69.6383 97.5565 69.6256 97.6247 69.6089C97.721 69.5782 97.8097 69.5272 97.8847 69.4594C97.9597 69.3915 98.0193 69.3084 98.0594 69.2155C98.1138 69.0762 98.135 68.9262 98.1216 68.7773C98.1216 68.6117 98.1216 68.4322 98.1216 68.2321C98.1216 67.8318 98.1216 67.3764 98.1216 66.8519V64.6607C98.138 64.5021 98.1029 64.3424 98.0215 64.2053C97.9364 64.0646 97.8025 63.9602 97.6454 63.912C97.4735 63.8813 97.2985 63.872 97.1243 63.8844H92.1589L63.3982 63.7774C63.2435 63.7778 63.0942 63.8343 62.978 63.9365C62.8619 64.0387 62.7868 64.1795 62.7667 64.3329C62.7667 64.6607 62.7667 65.0231 62.7667 65.3681C62.7667 66.0582 62.7667 66.7484 62.7667 67.4385C62.7667 67.7835 62.7667 68.1286 62.7667 68.4737C62.7539 68.6349 62.7608 68.7972 62.7874 68.9567C62.8305 69.0967 62.9192 69.2181 63.0393 69.3018C63.1668 69.3827 63.3165 69.4213 63.4672 69.4122H63.9468H64.944L72.5802 69.4502L85.5096 69.5295L94.2258 69.5985L96.5964 69.6262H94.2258H85.5096L72.5733 69.6123L64.9371 69.5847H63.4361C63.2495 69.5958 63.0643 69.5462 62.9082 69.4433C62.7512 69.3345 62.6366 69.1748 62.5838 68.9912C62.5529 68.8159 62.5436 68.6374 62.5562 68.4598C62.5562 68.1148 62.5562 67.7697 62.5562 67.4247C62.5562 66.7345 62.5562 66.0444 62.5562 65.3543C62.5562 65.0092 62.5562 64.6642 62.5562 64.3191C62.5814 64.1218 62.6776 63.9405 62.8269 63.809C62.9761 63.6775 63.1682 63.6049 63.3671 63.6049L92.1279 63.7636L97.0933 63.8015C97.2782 63.7902 97.4638 63.803 97.6454 63.8395C97.8246 63.8981 97.9759 64.021 98.0698 64.1846C98.1591 64.3365 98.1977 64.513 98.1802 64.6883C98.1802 64.8505 98.1802 65.0093 98.1802 65.168C98.1802 65.7925 98.1802 66.3653 98.1802 66.8933C98.1802 67.4212 98.1802 67.8663 98.1802 68.2735C98.1802 68.4702 98.1802 68.6531 98.1802 68.8222C98.1928 68.9765 98.1679 69.1315 98.1077 69.2742C98.063 69.3694 97.9982 69.4538 97.9178 69.5217C97.8374 69.5896 97.7433 69.6393 97.6419 69.6676C97.5665 69.6738 97.4906 69.6668 97.4176 69.6469Z" fill="#E0E0E0"/>
<path d="M71.4984 75.1498L62.6235 75.1095L62.6161 76.7382L71.491 76.7784L71.4984 75.1498Z" fill="#4CAF4F"/>
<path opacity="0.1" d="M71.4984 75.1498L62.6235 75.1095L62.6161 76.7382L71.491 76.7784L71.4984 75.1498Z" fill="black"/>
<path d="M97.3485 85.1435C97.4182 85.1353 97.4874 85.1226 97.5555 85.1055C97.6515 85.075 97.7398 85.0245 97.8148 84.9573C97.8898 84.8901 97.9496 84.8077 97.9903 84.7156C98.0444 84.5763 98.0656 84.4263 98.0524 84.2774C98.0524 84.1083 98.0524 83.9323 98.0524 83.7288C98.0524 83.3319 98.0524 82.873 98.0524 82.3485V80.1574C98.0689 79.9987 98.0338 79.839 97.9523 79.7019C97.8652 79.5638 97.7319 79.4611 97.5762 79.4121C97.4045 79.3802 97.2295 79.3697 97.0552 79.381H92.0898L63.329 79.274C63.1743 79.2744 63.025 79.3309 62.9089 79.4331C62.7927 79.5353 62.7176 79.6762 62.6976 79.8296C62.6976 80.1746 62.6976 80.5197 62.6976 80.8648C62.6976 81.5549 62.6976 82.245 62.6976 82.9351C62.6976 83.2802 62.6976 83.6252 62.6976 83.9703C62.6847 84.1304 62.6917 84.2915 62.7183 84.4499C62.7596 84.5907 62.8487 84.7127 62.9702 84.795C63.0968 84.8777 63.2472 84.9165 63.398 84.9054H64.8991L72.5352 84.9468L85.4646 85.0262L94.1808 85.0952L96.5514 85.1228H94.1808H85.4646L72.5352 85.0848L64.8991 85.0538H63.398C63.2113 85.0664 63.0256 85.0166 62.8701 84.9123C62.7131 84.8035 62.5985 84.6439 62.5457 84.4603C62.5148 84.2849 62.5055 84.1065 62.5181 83.9289C62.5181 83.5838 62.5181 83.2388 62.5181 82.8937C62.5181 82.2036 62.5181 81.5135 62.5181 80.8233C62.5181 80.4783 62.5181 80.1332 62.5181 79.7709C62.5425 79.5739 62.6381 79.3926 62.7867 79.261C62.9354 79.1295 63.1271 79.0568 63.3256 79.0566L92.0863 79.2154L97.0517 79.2533C97.2366 79.242 97.4222 79.2547 97.6038 79.2913C97.7831 79.3499 97.9343 79.4728 98.0283 79.6363C98.1175 79.7883 98.1562 79.9647 98.1387 80.1401C98.1387 80.3023 98.1387 80.4645 98.1387 80.6198C98.1387 81.2443 98.1387 81.8171 98.1387 82.3451C98.1387 82.873 98.1387 83.3181 98.1387 83.7253C98.1387 83.922 98.1387 84.1049 98.1387 84.2739C98.1519 84.4283 98.127 84.5835 98.0662 84.726C98.0214 84.8212 97.9566 84.9056 97.8762 84.9735C97.7958 85.0414 97.7018 85.0911 97.6004 85.1193C97.5195 85.147 97.4332 85.1553 97.3485 85.1435Z" fill="#E0E0E0"/>
<path d="M81.3018 65.9433L65.0703 65.8696L65.0634 67.3913L81.2949 67.465L81.3018 65.9433Z" fill="#4CAF4F"/>
<path opacity="0.2" d="M81.3018 65.9433L65.0703 65.8696L65.0634 67.3913L81.2949 67.465L81.3018 65.9433Z" fill="white"/>
<path d="M66.5379 82.3278C66.5277 82.4666 66.477 82.5993 66.3921 82.7096C66.3071 82.8198 66.1917 82.9027 66.0601 82.948C65.9285 82.9932 65.7865 82.9988 65.6517 82.9641C65.5169 82.9294 65.3953 82.8559 65.3019 82.7527C65.2086 82.6495 65.1475 82.5212 65.1264 82.3836C65.1053 82.2461 65.125 82.1054 65.1831 81.9789C65.2412 81.8524 65.3352 81.7458 65.4534 81.6723C65.5715 81.5988 65.7087 81.5615 65.8478 81.5652C66.04 81.5759 66.2203 81.662 66.3495 81.8047C66.4787 81.9475 66.5464 82.1354 66.5379 82.3278Z" fill="#4CAF4F"/>
<path d="M68.7363 82.3382C68.7431 82.4355 68.7298 82.5331 68.6973 82.625C68.6647 82.717 68.6136 82.8012 68.5471 82.8725C68.4805 82.9438 68.4001 83.0007 68.3106 83.0396C68.2212 83.0785 68.1247 83.0985 68.0272 83.0985C67.9297 83.0985 67.8332 83.0785 67.7438 83.0396C67.6544 83.0007 67.5739 82.9438 67.5074 82.8725C67.4409 82.8012 67.3898 82.717 67.3572 82.625C67.3246 82.5331 67.3113 82.4355 67.3181 82.3382C67.3113 82.2409 67.3246 82.1433 67.3572 82.0514C67.3898 81.9594 67.4409 81.8752 67.5074 81.8039C67.5739 81.7326 67.6544 81.6757 67.7438 81.6368C67.8332 81.5979 67.9297 81.5779 68.0272 81.5779C68.1247 81.5779 68.2212 81.5979 68.3106 81.6368C68.4001 81.6757 68.4805 81.7326 68.5471 81.8039C68.6136 81.8752 68.6647 81.9594 68.6973 82.0514C68.7298 82.1433 68.7431 82.2409 68.7363 82.3382Z" fill="#4CAF4F"/>
<path d="M70.9378 82.3485C70.9276 82.4873 70.8769 82.6201 70.792 82.7303C70.7071 82.8406 70.5916 82.9235 70.46 82.9687C70.3284 83.014 70.1864 83.0196 70.0516 82.9849C69.9169 82.9502 69.7952 82.8767 69.7018 82.7735C69.6085 82.6703 69.5474 82.542 69.5263 82.4044C69.5052 82.2668 69.5249 82.1261 69.583 81.9996C69.6411 81.8732 69.7351 81.7666 69.8533 81.693C69.9714 81.6195 70.1086 81.5823 70.2477 81.5859C70.4396 81.5975 70.6193 81.6839 70.7484 81.8264C70.8774 81.969 70.9454 82.1564 70.9378 82.3485Z" fill="#4CAF4F"/>
<path d="M73.1356 82.3589C73.1254 82.4977 73.0747 82.6305 72.9897 82.7407C72.9048 82.851 72.7894 82.9338 72.6578 82.9791C72.5262 83.0243 72.3842 83.03 72.2494 82.9953C72.1146 82.9606 71.993 82.8871 71.8996 82.7839C71.8062 82.6807 71.7452 82.5523 71.7241 82.4148C71.7029 82.2772 71.7227 82.1365 71.7808 82.01C71.8389 81.8836 71.9329 81.777 72.051 81.7034C72.1692 81.6299 72.3063 81.5926 72.4454 81.5963C72.6374 81.6079 72.8171 81.6942 72.9461 81.8368C73.0751 81.9793 73.1431 82.1668 73.1356 82.3589Z" fill="#4CAF4F"/>
<path d="M75.3336 82.3658C75.324 82.5048 75.2739 82.638 75.1893 82.7487C75.1047 82.8594 74.9895 82.9429 74.8579 82.9886C74.7263 83.0344 74.5842 83.0405 74.4491 83.0061C74.3141 82.9718 74.1922 82.8985 74.0984 82.7954C74.0047 82.6923 73.9433 82.564 73.922 82.4263C73.9006 82.2886 73.9202 82.1477 73.9783 82.021C74.0363 81.8944 74.1303 81.7876 74.2486 81.7139C74.3669 81.6403 74.5042 81.603 74.6434 81.6067C74.8347 81.6183 75.0139 81.7041 75.1429 81.8459C75.2718 81.9877 75.3402 82.1743 75.3336 82.3658Z" fill="#4CAF4F"/>
<path d="M77.5352 82.3762C77.5258 82.5145 77.4762 82.647 77.3924 82.7574C77.3087 82.8679 77.1944 82.9514 77.0638 82.9978C76.9332 83.0441 76.7919 83.0513 76.6572 83.0184C76.5226 82.9855 76.4005 82.9139 76.306 82.8125C76.2115 82.7111 76.1487 82.5843 76.1254 82.4476C76.102 82.311 76.1192 82.1705 76.1746 82.0435C76.2301 81.9165 76.3214 81.8084 76.4375 81.7327C76.5536 81.6569 76.6893 81.6167 76.8279 81.6171C77.0222 81.6243 77.2058 81.7082 77.3384 81.8505C77.471 81.9928 77.5418 82.1818 77.5352 82.3762Z" fill="#4CAF4F"/>
<path d="M79.7334 82.3865C79.7402 82.4838 79.7269 82.5815 79.6943 82.6734C79.6618 82.7653 79.6106 82.8495 79.5441 82.9208C79.4776 82.9922 79.3971 83.049 79.3077 83.0879C79.2183 83.1268 79.1218 83.1469 79.0243 83.1469C78.9268 83.1469 78.8303 83.1268 78.7409 83.0879C78.6514 83.049 78.571 82.9922 78.5045 82.9208C78.438 82.8495 78.3868 82.7653 78.3543 82.6734C78.3217 82.5815 78.3084 82.4838 78.3152 82.3865C78.3084 82.2893 78.3217 82.1916 78.3543 82.0997C78.3868 82.0078 78.438 81.9235 78.5045 81.8522C78.571 81.7809 78.6514 81.7241 78.7409 81.6852C78.8303 81.6463 78.9268 81.6262 79.0243 81.6262C79.1218 81.6262 79.2183 81.6463 79.3077 81.6852C79.3971 81.7241 79.4776 81.7809 79.5441 81.8522C79.6106 81.9235 79.6618 82.0078 79.6943 82.0997C79.7269 82.1916 79.7402 82.2893 79.7334 82.3865Z" fill="#4CAF4F"/>
<path d="M81.9312 82.3968C81.9218 82.5351 81.8722 82.6676 81.7884 82.7781C81.7046 82.8885 81.5904 82.972 81.4598 83.0184C81.3292 83.0648 81.1879 83.0719 81.0532 83.039C80.9186 83.0061 80.7965 82.9345 80.702 82.8331C80.6075 82.7317 80.5447 82.6049 80.5214 82.4683C80.498 82.3316 80.5151 82.1912 80.5706 82.0641C80.6261 81.9371 80.7174 81.829 80.8335 81.7533C80.9496 81.6775 81.0853 81.6373 81.2239 81.6377C81.4182 81.6449 81.6018 81.7288 81.7344 81.8711C81.867 82.0134 81.9378 82.2024 81.9312 82.3968Z" fill="#4CAF4F"/>
<path d="M84.1295 82.4072C84.1199 82.5462 84.0698 82.6794 83.9852 82.7901C83.9006 82.9008 83.7854 82.9842 83.6538 83.03C83.5222 83.0758 83.3801 83.0819 83.245 83.0475C83.11 83.0132 82.9881 82.9399 82.8943 82.8368C82.8006 82.7337 82.7392 82.6053 82.7179 82.4677C82.6965 82.33 82.7161 82.1891 82.7742 82.0624C82.8322 81.9357 82.9262 81.829 83.0445 81.7553C83.1628 81.6816 83.3001 81.6443 83.4393 81.6481C83.6306 81.6597 83.8098 81.7455 83.9388 81.8873C84.0677 82.0291 84.1361 82.2157 84.1295 82.4072Z" fill="#4CAF4F"/>
<g opacity="0.2">
<path d="M66.5379 82.3278C66.5277 82.4666 66.477 82.5993 66.3921 82.7096C66.3071 82.8198 66.1917 82.9027 66.0601 82.948C65.9285 82.9932 65.7865 82.9988 65.6517 82.9641C65.5169 82.9294 65.3953 82.8559 65.3019 82.7527C65.2086 82.6495 65.1475 82.5212 65.1264 82.3836C65.1053 82.2461 65.125 82.1054 65.1831 81.9789C65.2412 81.8524 65.3352 81.7458 65.4534 81.6723C65.5715 81.5988 65.7087 81.5615 65.8478 81.5652C66.04 81.5759 66.2203 81.662 66.3495 81.8047C66.4787 81.9475 66.5464 82.1354 66.5379 82.3278Z" fill="white"/>
<path d="M68.7358 82.3381C68.7426 82.4354 68.7293 82.533 68.6968 82.6249C68.6642 82.7168 68.6131 82.8011 68.5466 82.8724C68.4801 82.9437 68.3996 83.0006 68.3102 83.0395C68.2207 83.0783 68.1243 83.0984 68.0267 83.0984C67.9292 83.0984 67.8327 83.0783 67.7433 83.0395C67.6539 83.0006 67.5734 82.9437 67.5069 82.8724C67.4404 82.8011 67.3893 82.7168 67.3567 82.6249C67.3242 82.533 67.3109 82.4354 67.3176 82.3381C67.3109 82.2408 67.3242 82.1432 67.3567 82.0512C67.3893 81.9593 67.4404 81.8751 67.5069 81.8038C67.5734 81.7325 67.6539 81.6756 67.7433 81.6367C67.8327 81.5978 67.9292 81.5778 68.0267 81.5778C68.1243 81.5778 68.2207 81.5978 68.3102 81.6367C68.3996 81.6756 68.4801 81.7325 68.5466 81.8038C68.6131 81.8751 68.6642 81.9593 68.6968 82.0512C68.7293 82.1432 68.7426 82.2408 68.7358 82.3381Z" fill="white"/>
<path d="M70.9373 82.3485C70.9271 82.4873 70.8764 82.6201 70.7915 82.7303C70.7066 82.8406 70.5911 82.9235 70.4595 82.9687C70.3279 83.014 70.1859 83.0196 70.0511 82.9849C69.9164 82.9502 69.7947 82.8767 69.7014 82.7735C69.608 82.6703 69.5469 82.542 69.5258 82.4044C69.5047 82.2668 69.5244 82.1261 69.5825 81.9996C69.6407 81.8732 69.7346 81.7666 69.8528 81.693C69.9709 81.6195 70.1081 81.5823 70.2472 81.5859C70.4391 81.5975 70.6189 81.6839 70.7479 81.8264C70.8769 81.969 70.9449 82.1564 70.9373 82.3485Z" fill="white"/>
<path d="M73.1356 82.3588C73.1254 82.4976 73.0747 82.6303 72.9897 82.7406C72.9048 82.8508 72.7894 82.9337 72.6578 82.979C72.5262 83.0242 72.3842 83.0298 72.2494 82.9951C72.1146 82.9604 71.993 82.8869 71.8996 82.7837C71.8062 82.6806 71.7452 82.5522 71.7241 82.4147C71.7029 82.2771 71.7227 82.1364 71.7808 82.0099C71.8389 81.8835 71.9329 81.7768 72.051 81.7033C72.1692 81.6298 72.3063 81.5925 72.4454 81.5962C72.6374 81.6078 72.8171 81.6941 72.9461 81.8367C73.0751 81.9792 73.1431 82.1667 73.1356 82.3588Z" fill="white"/>
<path d="M75.3336 82.3657C75.324 82.5047 75.2739 82.6379 75.1893 82.7486C75.1047 82.8593 74.9895 82.9428 74.8579 82.9885C74.7263 83.0343 74.5842 83.0404 74.4491 83.006C74.3141 82.9717 74.1922 82.8984 74.0984 82.7953C74.0047 82.6922 73.9433 82.5638 73.922 82.4262C73.9006 82.2885 73.9202 82.1476 73.9783 82.0209C74.0363 81.8943 74.1303 81.7875 74.2486 81.7138C74.3669 81.6401 74.5042 81.6028 74.6434 81.6066C74.8347 81.6182 75.0139 81.704 75.1429 81.8458C75.2718 81.9876 75.3402 82.1742 75.3336 82.3657Z" fill="white"/>
<path d="M77.5348 82.3761C77.5253 82.5144 77.4757 82.6469 77.3919 82.7573C77.3082 82.8677 77.194 82.9513 77.0633 82.9977C76.9327 83.044 76.7914 83.0512 76.6567 83.0183C76.5221 82.9853 76.4 82.9138 76.3055 82.8124C76.211 82.711 76.1483 82.5841 76.1249 82.4475C76.1016 82.3109 76.1187 82.1704 76.1741 82.0434C76.2296 81.9164 76.321 81.8083 76.437 81.7325C76.5531 81.6568 76.6888 81.6166 76.8274 81.6169C77.0217 81.6241 77.2053 81.7081 77.3379 81.8504C77.4705 81.9927 77.5413 82.1817 77.5348 82.3761Z" fill="white"/>
<path d="M79.7329 82.3864C79.7397 82.4837 79.7264 82.5813 79.6938 82.6733C79.6613 82.7652 79.6102 82.8494 79.5436 82.9207C79.4771 82.992 79.3967 83.0489 79.3072 83.0878C79.2178 83.1267 79.1213 83.1467 79.0238 83.1467C78.9263 83.1467 78.8298 83.1267 78.7404 83.0878C78.651 83.0489 78.5705 82.992 78.504 82.9207C78.4375 82.8494 78.3863 82.7652 78.3538 82.6733C78.3212 82.5813 78.3079 82.4837 78.3147 82.3864C78.3079 82.2891 78.3212 82.1915 78.3538 82.0996C78.3863 82.0077 78.4375 81.9234 78.504 81.8521C78.5705 81.7808 78.651 81.7239 78.7404 81.685C78.8298 81.6462 78.9263 81.6261 79.0238 81.6261C79.1213 81.6261 79.2178 81.6462 79.3072 81.685C79.3967 81.7239 79.4771 81.7808 79.5436 81.8521C79.6102 81.9234 79.6613 82.0077 79.6938 82.0996C79.7264 82.1915 79.7397 82.2891 79.7329 82.3864Z" fill="white"/>
<path d="M81.9312 82.3968C81.9218 82.5351 81.8722 82.6676 81.7884 82.7781C81.7046 82.8885 81.5904 82.972 81.4598 83.0184C81.3292 83.0648 81.1879 83.0719 81.0532 83.039C80.9186 83.0061 80.7965 82.9345 80.702 82.8331C80.6075 82.7317 80.5447 82.6049 80.5214 82.4683C80.498 82.3316 80.5151 82.1912 80.5706 82.0641C80.6261 81.9371 80.7174 81.829 80.8335 81.7533C80.9496 81.6775 81.0853 81.6373 81.2239 81.6377C81.4182 81.6449 81.6018 81.7288 81.7344 81.8711C81.867 82.0134 81.9378 82.2024 81.9312 82.3968Z" fill="white"/>
<path d="M84.129 82.4071C84.1195 82.5461 84.0693 82.6792 83.9847 82.79C83.9002 82.9007 83.7849 82.9841 83.6533 83.0299C83.5217 83.0757 83.3796 83.0818 83.2446 83.0474C83.1095 83.0131 82.9876 82.9398 82.8938 82.8367C82.8001 82.7336 82.7388 82.6052 82.7174 82.4675C82.696 82.3298 82.7156 82.1889 82.7737 82.0623C82.8317 81.9356 82.9257 81.8288 83.044 81.7552C83.1623 81.6815 83.2996 81.6442 83.4389 81.648C83.6301 81.6595 83.8094 81.7454 83.9383 81.8872C84.0672 82.029 84.1356 82.2156 84.129 82.4071Z" fill="white"/>
</g>
<path d="M81.0066 32.5944C81.2463 32.4888 81.4497 32.3151 81.5914 32.0949C81.7332 31.8746 81.807 31.6175 81.8037 31.3556C81.8126 31.1854 81.7868 31.0151 81.7278 30.8552C81.6688 30.6952 81.5779 30.5489 81.4605 30.4253C81.3432 30.3016 81.2019 30.2031 81.0452 30.1358C80.8886 30.0685 80.7199 30.0338 80.5494 30.0338C80.3789 30.0338 80.2102 30.0685 80.0536 30.1358C79.897 30.2031 79.7557 30.3016 79.6383 30.4253C79.521 30.5489 79.43 30.6952 79.371 30.8552C79.312 31.0151 79.2862 31.1854 79.2951 31.3556C79.2899 31.6202 79.3631 31.8803 79.5056 32.1032C79.6481 32.3262 79.8534 32.5019 80.0957 32.6082C78.1633 32.8981 78.2496 34.996 78.2496 34.996L82.8182 35.0167C82.8182 35.0167 82.9252 32.8808 81.0066 32.5944Z" fill="#4CAF4F"/>
<path opacity="0.1" d="M81.0066 32.5944C81.2463 32.4888 81.4497 32.3151 81.5914 32.0949C81.7332 31.8746 81.807 31.6175 81.8037 31.3556C81.8126 31.1854 81.7868 31.0151 81.7278 30.8552C81.6688 30.6952 81.5779 30.5489 81.4605 30.4253C81.3432 30.3016 81.2019 30.2031 81.0452 30.1358C80.8886 30.0685 80.7199 30.0338 80.5494 30.0338C80.3789 30.0338 80.2102 30.0685 80.0536 30.1358C79.897 30.2031 79.7557 30.3016 79.6383 30.4253C79.521 30.5489 79.43 30.6952 79.371 30.8552C79.312 31.0151 79.2862 31.1854 79.2951 31.3556C79.2899 31.6202 79.3631 31.8803 79.5056 32.1032C79.6481 32.3262 79.8534 32.5019 80.0957 32.6082C78.1633 32.8981 78.2496 34.996 78.2496 34.996L82.8182 35.0167C82.8182 35.0167 82.9252 32.8808 81.0066 32.5944Z" fill="black"/>
<path d="M88.4302 36.3698L72.147 36.2959L72.1381 38.242L88.4213 38.3159L88.4302 36.3698Z" fill="#4CAF4F"/>
<path opacity="0.2" d="M88.4302 36.3698L72.147 36.2959L72.1381 38.242L88.4213 38.3159L88.4302 36.3698Z" fill="white"/>
<path d="M28.5676 46.4555H28.4054L27.9362 46.49C27.6822 46.5052 27.4297 46.5387 27.1805 46.59C27.0191 46.6127 26.859 46.6438 26.7008 46.6832L26.166 46.8316C25.2557 47.1109 24.3968 47.5362 23.6229 48.0911C22.6005 48.8332 21.7467 49.7834 21.1178 50.8791C20.7481 51.5108 20.454 52.1837 20.2413 52.8839C20.0179 53.645 19.8893 54.4308 19.8583 55.2234C19.8377 55.6398 19.8447 56.0571 19.879 56.4726C19.879 56.683 19.9377 56.8935 19.9653 57.1075C19.9885 57.3231 20.0289 57.5366 20.086 57.7458C20.3963 59.1305 21.0259 60.4234 21.9246 61.5216C22.8232 62.6197 23.9661 63.4927 25.2619 64.0708C26.1999 64.4755 27.2051 64.7013 28.226 64.7367C29.2804 64.7947 30.3359 64.6435 31.3316 64.2916L31.6352 64.1777H31.6766L31.7111 64.1985L36.0623 66.4068L35.9347 66.5173C35.4688 65.0749 35.0202 63.6774 34.5855 62.3351V62.2834L34.6234 62.2454C35.679 61.1823 36.4625 59.8802 36.9077 58.4498C37.3109 57.142 37.4286 55.7628 37.2528 54.4057C37.0964 53.1995 36.7086 52.0349 36.1106 50.9758C35.5952 50.0659 34.9303 49.2494 34.1438 48.5603C33.4949 48.0149 32.7767 47.5578 32.0079 47.2008C31.4261 46.9499 30.8203 46.7591 30.1998 46.6315L29.5096 46.5176L29.0093 46.4796L28.7056 46.4589H28.6021C28.6365 46.4551 28.6712 46.4551 28.7056 46.4589H29.0128L29.5131 46.4796L30.2032 46.5797C30.8315 46.698 31.4456 46.8819 32.0355 47.1283C32.8175 47.4811 33.5487 47.9372 34.2094 48.4844C35.0103 49.1704 35.6893 49.9871 36.2176 50.8998C36.8325 51.9703 37.2322 53.1507 37.3943 54.3746C37.5847 55.7527 37.4752 57.1558 37.0733 58.4877C36.6253 59.9479 35.8296 61.2777 34.7545 62.3627L34.7753 62.273C35.21 63.6153 35.6621 65.0128 36.1313 66.4517L36.1969 66.6622L36.0002 66.5621L31.649 64.3572H31.7249L31.4144 64.471C30.3995 64.8282 29.3245 64.9829 28.2502 64.9265C27.2073 64.8868 26.181 64.6528 25.224 64.2364C23.3985 63.4546 21.8797 62.0958 20.9004 60.3683C20.4497 59.5704 20.1206 58.7098 19.9239 57.8148C19.87 57.6002 19.8297 57.3824 19.8031 57.1627C19.7755 56.9453 19.7306 56.7314 19.7203 56.5174C19.6269 55.2896 19.7567 54.0551 20.1033 52.8736C20.3212 52.1637 20.6236 51.4825 21.0039 50.8446C21.6478 49.7389 22.5194 48.7827 23.5608 48.0393C24.3474 47.4831 25.2207 47.061 26.1453 46.7902L26.687 46.6522C26.8465 46.6152 27.0077 46.5864 27.1701 46.5659C27.4219 46.5193 27.6768 46.4916 27.9327 46.4831L28.4054 46.4658C28.4592 46.4586 28.5134 46.4551 28.5676 46.4555Z" fill="#4CAF4F"/>
<path d="M30.5346 54.5022H29.8962L28.516 52.563V51.2897C28.516 51.2897 27.5291 51.2276 27.6464 52.8943C27.7637 54.5609 27.6464 54.1365 27.6464 54.1365C27.6464 54.1365 25.5519 54.1365 25.3794 54.3263C25.2068 54.516 25.1965 56.5381 25.1723 57.6664C25.1591 57.9384 25.2372 58.2071 25.3941 58.4296C25.551 58.6522 25.7778 58.8159 26.0384 58.8948C26.1115 58.9151 26.1869 58.9255 26.2627 58.9259C26.7872 58.9259 29.4545 58.5015 29.4545 58.5015H30.5553L30.5346 54.5022Z" fill="#4CAF4F"/>
<path d="M32.3597 54.1606L31.9664 58.5222H30.876V54.2504L32.3597 54.1606Z" fill="#4CAF4F"/>
<path d="M45.3649 142.955V140.005L40.0751 139.967L40.0303 144.428L40.3581 144.452C41.8177 144.546 47.7838 144.684 48.7637 144.38C49.8541 144.042 45.3649 142.955 45.3649 142.955Z" fill="#4CAF4F"/>
<path d="M48.8878 144.104C48.8878 144.152 46.9072 144.194 44.4676 144.194C42.028 144.194 40.0474 144.152 40.0474 144.104C40.0474 144.056 42.028 144.014 44.4676 144.014C46.9072 144.014 48.8878 144.056 48.8878 144.104Z" fill="#263238"/>
<path d="M45.4582 143.559C45.4133 143.535 45.4582 143.379 45.5652 143.214C45.6721 143.048 45.8171 142.979 45.8516 143.014C45.8861 143.048 45.8136 143.179 45.7101 143.321C45.6066 143.462 45.5031 143.583 45.4582 143.559Z" fill="#263238"/>
<path d="M45.7964 143.752C45.7481 143.752 45.7722 143.559 45.8757 143.376C45.9793 143.193 46.1173 143.083 46.1552 143.11C46.1932 143.138 46.1311 143.293 46.0345 143.455C45.9378 143.617 45.8412 143.769 45.7964 143.752Z" fill="#263238"/>
<path d="M41.6416 144.09C41.6209 144.09 41.5416 144.028 41.4277 143.897C41.2887 143.728 41.1338 143.573 40.9653 143.434C40.7996 143.302 40.6021 143.215 40.3925 143.183C40.2303 143.162 40.1268 143.183 40.1165 143.162C40.1061 143.141 40.2062 143.069 40.396 143.055C40.6464 143.05 40.8907 143.133 41.0861 143.29C41.2691 143.439 41.4234 143.62 41.5416 143.824C41.6209 143.976 41.6623 144.076 41.6416 144.09Z" fill="#263238"/>
<path d="M45.4754 143.003C45.4995 143.045 45.4098 143.148 45.258 143.203C45.1061 143.259 44.9716 143.238 44.9647 143.203C44.9578 143.169 45.0647 143.096 45.1959 143.048C45.327 143 45.4478 142.962 45.4754 143.003Z" fill="#263238"/>
<path d="M45.3923 142.717C45.3923 142.768 45.2543 142.81 45.0748 142.813C44.8954 142.817 44.7539 142.775 44.7574 142.727C44.7608 142.679 44.9023 142.634 45.0748 142.63C45.2474 142.627 45.3854 142.668 45.3923 142.717Z" fill="#263238"/>
<path d="M58.3908 142.955V140.005L53.101 139.967L53.0562 144.383L53.384 144.408C54.8436 144.501 60.8131 144.684 61.7896 144.38C62.88 144.042 58.3908 142.955 58.3908 142.955Z" fill="#4CAF4F"/>
<path d="M61.9141 144.111C61.9141 144.159 59.9369 144.201 57.4939 144.201C55.0509 144.201 53.0771 144.159 53.0771 144.111C53.0771 144.063 55.0543 144.021 57.4939 144.021C59.9335 144.021 61.9141 144.063 61.9141 144.111Z" fill="#263238"/>
<path d="M58.4841 143.559C58.4427 143.535 58.4841 143.379 58.591 143.214C58.698 143.048 58.8429 142.979 58.8774 143.014C58.9119 143.048 58.8395 143.179 58.736 143.321C58.6324 143.462 58.5289 143.583 58.4841 143.559Z" fill="#263238"/>
<path d="M58.8221 143.752C58.7772 143.752 58.7979 143.559 58.9049 143.376C59.0118 143.193 59.1464 143.083 59.1844 143.11C59.2223 143.138 59.1568 143.293 59.0601 143.455C58.9635 143.617 58.8704 143.769 58.8221 143.752Z" fill="#263238"/>
<path d="M54.6675 144.09C54.6468 144.09 54.5709 144.028 54.4536 143.897C54.3146 143.728 54.1597 143.573 53.9912 143.434C53.8254 143.302 53.628 143.215 53.4184 143.183C53.2597 143.162 53.1527 143.183 53.1423 143.162C53.132 143.141 53.232 143.069 53.4218 143.055C53.6723 143.05 53.9166 143.133 54.1119 143.29C54.2959 143.438 54.4504 143.619 54.5674 143.824C54.6468 143.976 54.6882 144.076 54.6675 144.09Z" fill="#263238"/>
<path d="M58.5012 143.003C58.5254 143.045 58.4357 143.148 58.2838 143.203C58.132 143.259 57.9975 143.238 57.9906 143.203C57.9836 143.169 58.0906 143.096 58.2217 143.048C58.3529 143 58.4736 142.962 58.5012 143.003Z" fill="#263238"/>
<path d="M58.4255 142.717C58.4255 142.768 58.2874 142.81 58.108 142.813C57.9286 142.817 57.7906 142.775 57.794 142.727C57.7975 142.679 57.9355 142.634 58.108 142.63C58.2805 142.627 58.4255 142.668 58.4255 142.717Z" fill="#263238"/>
<path d="M77.8799 55.3442C77.7419 55.2027 77.4003 55.2717 77.4003 55.2717C77.4345 55.073 77.4345 54.87 77.4003 54.6713C77.3382 54.4781 76.9034 54.516 76.9034 54.516C76.8834 54.3533 76.8834 54.1887 76.9034 54.026C76.9069 53.99 76.8991 53.9537 76.8812 53.9222C76.8633 53.8907 76.8361 53.8655 76.8033 53.85C76.5976 53.7662 76.3767 53.7262 76.1546 53.7327C75.8889 53.5429 76.9655 52.035 77.3658 51.5519C77.7661 51.0689 77.6936 50.6927 77.3382 50.6927C77.0932 50.6927 75.8372 52.142 75.4507 52.6285C75.0642 53.1151 74.0394 54.4677 74.0049 53.3877C73.9704 52.3076 73.5356 51.4933 73.263 51.3553C72.9904 51.2172 72.7006 51.5416 72.849 51.8418C72.9793 52.1829 73.0606 52.5407 73.0905 52.9046C73.128 53.1945 73.1151 53.4886 73.0525 53.7741C72.9381 54.3054 72.7824 54.8268 72.5867 55.3338H72.5591C72.5591 55.3338 65.0299 62.5559 64.4847 63.07C63.9982 63.5324 54.2123 62.5214 52.2489 62.3144C51.5817 62.2167 50.908 62.1706 50.2337 62.1763C49.3814 62.2143 49.2296 62.3351 48.3808 62.3454C46.237 62.3692 44.0983 62.5573 41.9833 62.9079C41.0257 63.0707 40.1311 63.4934 39.3973 64.1299C38.6634 64.7664 38.1185 65.5922 37.8219 66.5172C35.8447 72.6938 31.3658 87.314 30.5757 95.5264C29.9786 96.6092 29.4395 97.723 28.9608 98.8631C28.4052 100.374 28.5398 100.426 28.7261 100.461C29.2299 100.554 29.8027 97.8417 30.0167 98.4973C30.2306 99.153 28.9297 101.731 29.4577 101.806C30.1478 101.903 30.6964 99.046 30.762 98.8182C30.8276 98.5905 31.1692 98.663 31.1071 98.8769C31.007 99.1806 30.0374 102.4 30.7137 102.503C31.0864 102.559 31.1278 101.879 31.1278 101.879C31.1278 101.879 31.8179 98.7975 32.1319 98.8597C32.4459 98.9218 32.1112 100.74 31.9524 101.348C31.7937 101.955 32.0146 102.262 32.3389 102.114C32.5598 102.01 33.0877 100.164 33.2326 99.5636C33.3775 98.9632 33.7399 97.3 34.2264 98.2627C34.7129 99.2254 35.4514 99.7844 35.755 99.7982C35.8234 99.7903 35.8879 99.7621 35.9402 99.7173C35.9925 99.6724 36.0301 99.613 36.0483 99.5465C36.0665 99.4801 36.0644 99.4097 36.0422 99.3445C36.0201 99.2793 35.979 99.2222 35.9241 99.1806C35.6629 98.9255 35.4387 98.6351 35.2581 98.3179C35.0972 98.0708 34.9804 97.7976 34.9131 97.5105C34.774 96.9381 34.6931 96.3531 34.6715 95.7645L34.6163 95.4194C35.3892 91.5927 37.6149 80.361 40.8274 73.1872L42.1455 75.8994L42.7183 77.9076L39.2056 86.579L54.1881 86.3823L51.9521 77.7765L54.6677 68.8049C57.6042 68.8705 65.1438 68.9809 66.3998 68.4116C67.9802 67.7215 76.1546 57.3973 76.1546 57.3973C76.6875 56.9832 77.1977 56.5409 77.6832 56.0722C77.6832 56.0722 78.1801 55.6547 77.8799 55.3442Z" fill="#FFBE9D"/>
<path d="M38.5466 80.1713C38.9813 78.6875 41.2139 71.3515 41.2139 71.3515C41.2139 71.3515 42.3112 77.3314 42.0213 78.0526C41.7547 78.67 41.4397 79.2654 41.0793 79.8331C38.5466 83.6874 38.8778 85.6163 38.8778 85.6163L54.1812 85.1505C54.2157 83.0111 52.9494 78.0354 52.6871 77.2417C52.4249 76.4481 53.2979 73.8498 53.2979 73.8498C53.2979 73.8498 55.0232 72.0934 54.9611 71.1894C54.9283 70.3773 54.8279 69.5693 54.6609 68.7739L63.9775 69.119L63.6842 62.8044L50.3028 61.4656C49.8369 62.7803 45.6237 62.135 45.6237 62.135C41.0758 62.2868 40.7929 63.1219 38.902 64.5918C37.011 66.0618 33.8813 78.6772 33.8813 78.6772L38.5466 80.1713Z" fill="#4CAF4F"/>
<path d="M47.5941 78.6771C47.3289 78.7245 47.0588 78.7384 46.7901 78.7185C46.2897 78.7185 45.6031 78.684 44.8474 78.608C44.0917 78.5321 43.4085 78.4252 42.922 78.3285C42.6537 78.294 42.3906 78.2268 42.1387 78.1284C42.4085 78.1285 42.6776 78.1539 42.9427 78.2043C43.4326 78.2664 44.1124 78.3527 44.8646 78.4286C45.6169 78.5045 46.3001 78.5563 46.7935 78.5908C47.0625 78.5942 47.3305 78.6231 47.5941 78.6771Z" fill="#263238"/>
<path d="M48.643 77.3762C48.3777 77.5062 48.0972 77.6024 47.808 77.6626C46.4313 78.0244 45.011 78.1928 43.5879 78.163C43.2934 78.1725 42.9989 78.1447 42.7114 78.0801C43.0021 78.0434 43.295 78.0284 43.5879 78.0353C44.1296 78.018 44.8749 77.9801 45.6962 77.8835C46.5174 77.7868 47.249 77.6488 47.7666 77.5384C48.054 77.4616 48.3471 77.4074 48.643 77.3762Z" fill="#263238"/>
<path d="M53.7914 71.5724C53.7844 71.8355 53.7485 72.097 53.6844 72.3522C53.5947 72.8319 53.4567 73.4875 53.2807 74.2052C53.1047 74.9229 52.9356 75.5854 52.7838 76.034C52.7227 76.2908 52.6324 76.5397 52.5146 76.7759C52.5339 76.5136 52.5825 76.2544 52.6596 76.003C52.7907 75.4647 52.9391 74.8436 53.1047 74.1638C53.2703 73.484 53.4291 72.8629 53.5602 72.3246C53.6069 72.0655 53.6845 71.813 53.7914 71.5724Z" fill="#263238"/>
<path d="M38.7087 79.2913C37.9104 79.1681 37.1226 78.9847 36.3519 78.7427C35.5645 78.5586 34.7917 78.3164 34.04 78.0181C34.8379 78.1433 35.6256 78.3267 36.3968 78.5667C37.1844 78.7502 37.9572 78.9924 38.7087 79.2913Z" fill="#263238"/>
<path d="M54.8267 68.698C54.6965 68.7204 54.5634 68.7204 54.4333 68.698C54.0729 68.661 53.719 68.5763 53.3809 68.4461C52.8164 68.234 52.3025 67.9061 51.8723 67.4836C51.442 67.0611 51.1049 66.5533 50.8826 65.9927C50.6369 65.3761 50.532 64.7124 50.5755 64.05C50.5909 63.5037 50.7543 62.9718 51.0482 62.5111C51.255 62.2007 51.5639 61.9724 51.9212 61.8658C52.0168 61.8394 52.1155 61.8267 52.2146 61.8278C52.2836 61.8278 52.3181 61.8278 52.3181 61.8278C52.3181 61.8278 52.1731 61.8278 51.942 61.921C51.6141 62.0421 51.336 62.2692 51.1518 62.5663C50.6825 63.3047 50.5514 64.6539 51.0517 65.9133C51.2846 66.5072 51.6491 67.0405 52.1179 67.473C52.5021 67.8269 52.9445 68.1118 53.4257 68.315C53.8773 68.4934 54.3471 68.6219 54.8267 68.698Z" fill="#263238"/>
<path d="M62.8696 68.9947C62.7833 67.9366 62.7556 66.8745 62.7868 65.8133C62.7598 64.7529 62.792 63.692 62.8834 62.6353C62.9698 63.6922 62.9974 64.7532 62.9662 65.8133C62.9952 66.8747 62.963 67.937 62.8696 68.9947Z" fill="#263238"/>
<path d="M50.2132 61.852C50.2512 61.0825 50.3305 60.2129 50.3305 60.2129C50.3305 60.2129 52.2353 60.0025 52.3491 58.0356C52.463 56.0688 52.3491 51.5312 52.3491 51.5312L48.8985 49.7645L45.0684 52.7769L45.6584 62.6111L49.1711 62.8354C49.4396 62.8428 49.7001 62.7435 49.8955 62.5591C50.0908 62.3748 50.2051 62.1205 50.2132 61.852Z" fill="#FFBE9D"/>
<path d="M50.5547 56.4794C50.5547 56.4794 50.5547 56.5174 50.5237 56.5623C50.498 56.5948 50.4648 56.6206 50.4269 56.6374C50.3891 56.6543 50.3477 56.6616 50.3063 56.6589C50.0855 56.6589 49.8715 56.4035 49.7956 56.1068C49.7595 55.9629 49.7595 55.8124 49.7956 55.6686C49.8027 55.6058 49.8253 55.5457 49.8615 55.4939C49.8976 55.4421 49.9462 55.4001 50.0026 55.3718C50.0491 55.3526 50.1012 55.3526 50.1476 55.3718C50.182 55.3889 50.2099 55.4168 50.2269 55.4512C50.2511 55.5098 50.2269 55.5478 50.2269 55.5443C50.2269 55.5409 50.2269 55.5098 50.1924 55.4753C50.1744 55.4506 50.1479 55.4334 50.1179 55.427C50.088 55.4207 50.0568 55.4256 50.0303 55.4408C49.9879 55.4664 49.9528 55.5023 49.928 55.5451C49.9033 55.588 49.8898 55.6363 49.8888 55.6858C49.8597 55.8142 49.8597 55.9474 49.8888 56.0757C49.9578 56.3449 50.1441 56.5623 50.3098 56.583C50.3422 56.5874 50.3751 56.585 50.4066 56.5761C50.438 56.5672 50.4673 56.5519 50.4926 56.5312C50.534 56.5036 50.5478 56.476 50.5547 56.4794Z" fill="#EB996E"/>
<path d="M53.5325 50.4685C53.2668 49.5644 52.3041 49.1158 51.4277 48.8674C50.0923 48.4878 48.6499 48.3222 47.3456 48.8018C46.0413 49.2815 44.4747 50.1234 44.4747 51.5623C43.7052 51.5002 43.2636 52.1731 42.9599 53.0081C42.7658 53.5169 42.6494 54.052 42.6148 54.5954C42.5182 56.4794 41.9903 59.0812 40.7688 60.4614C40.0787 61.2309 39.1228 61.7623 38.7295 62.7216C38.3844 63.5532 38.5638 64.54 38.2429 65.382C37.9565 66.1238 37.3251 66.6518 36.8627 67.2971C36.3916 68.0291 36.1144 68.8688 36.0571 69.7374C35.9997 70.606 36.1641 71.4749 36.5349 72.2625C36.9083 73.0298 37.434 73.7132 38.0801 74.2708C38.7261 74.8284 39.4789 75.2487 40.2926 75.506C41.9044 75.9964 43.6231 76.0132 45.2442 75.5543C46.4608 75.2634 47.5957 74.7007 48.5637 73.9084C49.5541 73.0996 50.2344 71.9731 50.4891 70.72C50.7341 69.3122 50.3407 67.8802 50.0474 66.4793C49.1296 62.0521 49.3918 61.821 50.5512 57.7113C50.5788 57.6388 50.5926 57.5629 50.6133 57.4905C50.634 57.418 50.6444 57.3835 50.6582 57.3283C50.6911 57.1658 50.7085 57.0006 50.7099 56.8348C50.5406 56.8978 50.3568 56.9111 50.1801 56.8732C50.0035 56.8353 49.8413 56.7478 49.7127 56.6209C49.5838 56.4856 49.4939 56.3179 49.4526 56.1357C49.4113 55.9534 49.4201 55.7634 49.4781 55.5857C49.5595 55.3914 49.6808 55.2164 49.8342 55.0719C49.9875 54.9275 50.1695 54.8169 50.3683 54.7472C50.7514 54.5885 51.162 54.5057 51.5381 54.3297C52.3352 53.9501 52.8873 53.1634 53.2634 52.3387C53.5726 51.7671 53.668 51.1041 53.5325 50.4685Z" fill="#263238"/>
<path d="M50.6929 56.5726C50.7658 56.6804 50.826 56.7961 50.8723 56.9177C50.9758 57.1351 51.1138 57.4422 51.2657 57.7976L51.2933 57.8632H51.2208L50.8758 57.8942C50.6377 57.8942 50.4375 57.9391 50.2029 57.9356C50.1825 57.931 50.1635 57.9213 50.1478 57.9075C50.1322 57.8936 50.1202 57.876 50.1132 57.8563C50.1029 57.8249 50.1029 57.791 50.1132 57.7596C50.1212 57.7131 50.1315 57.6671 50.1442 57.6216L50.2063 57.3766C50.2375 57.2132 50.2861 57.0536 50.3513 56.9004C50.3448 57.067 50.3205 57.2325 50.2788 57.3939L50.2305 57.6389C50.2132 57.7217 50.1822 57.8494 50.2305 57.839C50.403 57.839 50.648 57.801 50.8758 57.7872L51.2208 57.7562L51.176 57.8321C51.0276 57.487 50.9034 57.1627 50.8309 56.9384C50.7673 56.8238 50.7208 56.7006 50.6929 56.5726Z" fill="#4CAF4F"/>
<path d="M38.8778 85.6162L54.1812 85.1504L60.8408 111.147L59.6159 140.967H51.5242L52.5145 111.782L46.5968 93.6837L47.5077 142.123L39.3298 142.244L38.4706 96.7133C38.4326 95.447 38.0186 92.5933 38.1739 91.3373L38.8778 85.6162Z" fill="#263238"/>
<path d="M48.6326 94.0529C48.3821 94.0687 48.1307 94.0536 47.8839 94.0081C47.4215 93.9529 46.79 93.8563 46.0964 93.7182C45.4029 93.5802 44.7818 93.4215 44.3332 93.2938C44.0934 93.2411 43.8614 93.1576 43.6431 93.0454C43.6431 92.9936 44.768 93.2628 46.1482 93.5423C47.5284 93.8218 48.6395 94.0012 48.6326 94.0529Z" fill="#455A64"/>
<path d="M59.533 139.332C59.533 139.38 57.7007 139.422 55.4406 139.422C53.1804 139.422 51.3447 139.38 51.3447 139.332C51.3447 139.283 53.177 139.242 55.4406 139.242C57.7042 139.242 59.533 139.28 59.533 139.332Z" fill="#455A64"/>
<path d="M47.4355 140.864C47.4355 140.916 45.655 140.953 43.4604 140.953C41.2658 140.953 39.4888 140.916 39.4888 140.864C39.4888 140.812 41.2693 140.774 43.4604 140.774C45.6515 140.774 47.4355 140.815 47.4355 140.864Z" fill="#455A64"/>
<path d="M46.3796 140.74C46.3313 140.74 46.1173 130.157 45.9 117.103C45.6826 104.049 45.5549 93.4595 45.5998 93.4595C45.6446 93.4595 45.8655 104.039 46.0794 117.1C46.2933 130.16 46.4314 140.74 46.3796 140.74Z" fill="#455A64"/>
<path d="M58.4462 139.332C58.4424 139.285 58.4424 139.237 58.4462 139.19V138.776C58.4462 138.403 58.4738 137.869 58.4945 137.189C58.5428 135.809 58.6118 133.804 58.6981 131.347C58.8844 126.406 59.1467 119.594 59.4331 112.075C59.4331 112.003 59.4331 111.934 59.4331 111.872V111.896C57.6215 104.65 55.9825 98.0729 54.792 93.3145L53.4118 87.6866C53.2531 87.0275 53.1323 86.5134 53.046 86.1545C53.0046 85.9854 52.977 85.8543 52.9529 85.7542C52.9394 85.7093 52.9313 85.663 52.9287 85.6162C52.9466 85.6597 52.9605 85.7047 52.9701 85.7508C52.9977 85.8474 53.0322 85.9785 53.0805 86.1442C53.1737 86.4892 53.3083 87.0137 53.4808 87.6693C53.8259 89.0012 54.3124 90.9198 54.9197 93.2834C56.1205 98.0384 57.7768 104.598 59.6125 111.855V111.879C59.6125 111.941 59.6125 112.013 59.6125 112.082C59.3054 119.601 59.0259 126.409 58.8223 131.35C58.7154 133.811 58.6256 135.802 58.5635 137.189C58.529 137.879 58.5014 138.403 58.4842 138.776C58.4842 138.952 58.4635 139.09 58.46 139.19C58.4605 139.238 58.4559 139.285 58.4462 139.332Z" fill="#455A64"/>
<path d="M55.8062 111.265C55.225 111.456 54.6263 111.589 54.0188 111.661C53.2735 111.789 52.6386 111.879 52.3522 111.893V111.824C52.4454 111.851 52.4937 111.868 52.4937 111.882C52.4937 111.896 52.435 111.882 52.3384 111.882H52.1313L52.3384 111.82C52.6075 111.741 53.2424 111.61 53.9878 111.475C54.5855 111.345 55.1946 111.275 55.8062 111.265Z" fill="#455A64"/>
<path d="M55.6652 112.255C55.127 112.28 54.5876 112.255 54.0538 112.182C53.5148 112.171 52.9778 112.113 52.4492 112.006C53.5276 111.919 54.6131 112.002 55.6652 112.255Z" fill="#455A64"/>
<path opacity="0.2" d="M38.812 86.1649C38.9933 86.3976 39.2215 86.5895 39.482 86.728C39.7424 86.8666 40.0291 86.9486 40.3234 86.9689C40.9397 87.0419 41.5631 87.0303 42.1763 86.9343C46.1273 86.4961 50.3129 86.0924 54.181 85.1504C49.1742 85.4299 43.8844 85.3367 38.8776 85.6162L38.8258 86.0441" fill="black"/>
<g opacity="0.2">
<path d="M43.9707 93.2214L46.7933 104.174L46.5966 93.6838L43.9707 93.2214Z" fill="black"/>
</g>
</svg>
