<svg width="6" height="6" viewBox="0 0 6 6" fill="none" xmlns="http://www.w3.org/2000/svg">
<path fill-rule="evenodd" clip-rule="evenodd" d="M5.43546 0.0733474C5.50348 0.141366 5.52652 0.242335 5.49474 0.333127L3.74194 5.34113C3.70803 5.43803 3.61839 5.50441 3.51581 5.5086C3.41322 5.51278 3.31848 5.45392 3.27678 5.3601L2.3143 3.19451L0.148704 2.23202C0.0548842 2.19033 -0.00397573 2.09558 0.000209406 1.993C0.00439454 1.89042 0.0707766 1.80078 0.167681 1.76686L5.17568 0.0140648C5.26647 -0.0177123 5.36744 0.00532932 5.43546 0.0733474ZM2.80266 3.06026L3.4779 4.57955L4.65958 1.20335L2.80266 3.06026ZM4.30546 0.849231L0.929254 2.0309L2.44855 2.70614L4.30546 0.849231Z" fill="white"/>
</svg>
